<?xml version="1.0" encoding="utf-8"?>
<!-- Generator: Adobe Illustrator 23.1.0, SVG Export Plug-In . SVG Version: 6.00 Build 0)  -->
<svg version="1.1" id="Capa_1" xmlns="http://www.w3.org/2000/svg" xmlns:xlink="http://www.w3.org/1999/xlink" x="0px" y="0px"
	 viewBox="0 0 50 39" style="enable-background:new 0 0 50 39;" xml:space="preserve">
<style type="text/css">
	.st0{fill:#3A2D15;}
</style>
<title>Group</title>
<desc>Created with Sketch.</desc>
<g id="XMLID_6_">
	<path id="XMLID_16_" class="st0" d="M28.6,38.9c0-2,3.5-0.5,3.5-2.9c0-0.3-0.2-0.9-0.6-1.8c-0.2-0.8-0.6-1.6-1.1-2.7
		c-0.5-1.1-0.8-2.1-0.9-2.9c-0.6-1.5-1.2-2.2-1.8-2.2h-1.1c-0.4,0.2-1.4,0.2-2.9,0.1c-1.6,0-2.5-0.1-2.9-0.1c-0.2,0-0.6,0-0.8,0H19
		c-0.5,0.1-0.8,0.3-0.8,0.5v0c0,0,0,0,0,0.1c0,0.3-0.2,0.7-0.5,1.2c-0.3,0.6-0.4,0.9-0.4,1c0,0.6-0.3,1.6-1,3.2
		c0,0.2-0.2,0.7-0.5,1.4c-0.4,0.8-0.5,1.4-0.5,2c0,2.8,3.5,0.6,3.5,2.8c0,0.1,0,0.2,0,0.3l4.6,0L28.6,38.9
		C28.6,39,28.6,38.9,28.6,38.9z"/>
	<path id="XMLID_9_" class="st0" d="M20.5,23.8h3.1c0.2,0,0.9-0.3,0.9-0.3c0.4,0,1.2,0.2,1.4,0.2c1.1,0,1.6-0.1,1.6-0.4
		c0-0.6-0.7-2.3-2.1-5.1c-0.2-0.3-0.2-0.4-0.2-0.4c0-0.1-0.3-0.8-0.8-2s-0.9-2-0.9-2.3c0,0.6-0.7,2.2-2,4.7
		c-1.3,2.5-1.9,4.2-1.9,5.1c0,0.4,0.1,0.6,0.4,0.7C20.3,24.1,20.5,24,20.5,23.8z"/>
	<path id="XMLID_8_" class="st0" d="M30,0H20L6,33.9V39h1.7c0.1-0.7,0.5-1.4,1.4-1.4c1.4,0,2.3-0.9,3-3.3c0.3-0.3,0.8-1.3,1.6-3.1
		c0.9-1.9,1.3-3.1,1.3-3.7c0.1-0.1,0.7-1.4,1.7-4s1.5-4,1.5-4.1c0-0.2,0.3-0.6,0.7-1.4c0.5-0.8,0.7-1.4,0.7-1.8
		c0-0.7,0.2-1.4,0.4-2.1c0.3-0.8,0.8-1.7,1.4-2.8c0.7-1.2,1.1-1.9,1.2-2.3c0.4-0.5,0.6-1.2,0.6-2c0.1-0.9,0.3-1.4,0.5-1.8
		c0.4-0.4,0.6-0.6,0.8-0.6c0.2,0,0.3,0,0.7,0c1.1,0,1.8,0.5,1.9,1.5c0,0-0.1,0.1-0.1,0.2c0,0.2,0.7,1.2,0.7,2
		C27.5,8.2,27.7,8.5,28,9c1.3,3.8,2.5,6.7,3.5,8.6c0.4,0.8,0.5,1.5,0.5,2.1c0,0,0.2,0.3,0.4,0.7c0.5,0.7,0.9,1.9,1.5,3.5
		c0.6,1.6,1,2.7,1.3,3.3c0.8,1.2,1.3,3.3,1.9,4.3c0.4,0.6,0.5,1.2,0.5,1.9c0,0.1,0.2,0.5,0.6,1.2c0.4,0.7,0.6,1.1,0.6,1.2
		c0,0.8,0.5,1.4,1.4,1.7c1.8,0.4,2.2,0.2,2.3,1.5H44v-5.2L30,0z"/>
</g>
</svg>
