<?xml version="1.0" encoding="utf-8"?>
<!-- Generator: Adobe Illustrator 19.0.0, SVG Export Plug-In . SVG Version: 6.00 Build 0)  -->
<svg version="1.1" id="Layer_1" xmlns="http://www.w3.org/2000/svg" xmlns:xlink="http://www.w3.org/1999/xlink" x="0px" y="0px"
	 viewBox="0 0 500 500" style="enable-background:new 0 0 500 500;" xml:space="preserve">
<style type="text/css">
	.st0{fill:#3B2B0A;}
</style>
<g id="XMLID_642_">
	<path id="XMLID_645_" class="st0" d="M287.3,448.9c0-20.7,36.2-4.7,36.2-30c0-3.1-2.1-9.3-6.2-18.1c-2.1-7.8-5.7-16.6-11.4-27.4
		c-5.2-10.9-8.3-21.2-9.3-30c-5.7-15-11.9-22.8-18.6-22.8h-11.4c-3.6,1.6-14,1.6-30,1c-16-0.5-25.9-1-29.5-1c-1.6,0-5.7,0.5-7.8,0.5
		h-10.9c-4.7,1-7.8,2.6-8.3,5.2v0.5c0.5,0.5,0.5,0.5,0.5,1c0,2.6-1.6,6.7-4.7,12.4c-2.6,5.7-4.1,9.3-4.1,9.8
		c0,5.7-3.1,16.6-9.8,32.6c0,1.6-1.6,6.7-5.2,14.5c-3.6,7.8-5.2,14.5-5.2,20.7c0,29,36.2,5.7,36.2,29c0,1.1-0.1,2.1-0.2,3l47.2-0.1
		l52.4,0.1C287.3,449.5,287.3,449.2,287.3,448.9z"/>
	<path id="XMLID_644_" class="st0" d="M203.4,294.2h32.1c2.1,0,8.8-3.1,9.3-3.1c3.6,0,11.9,2.1,14,2.1c10.9,0,16.6-1,16.6-3.6
		c0-5.7-7.2-23.3-21.2-52.8c-1.6-2.6-2.1-4.1-2.1-3.6c0-1-2.6-7.8-8.3-20.7c-5.7-12.9-8.8-20.7-9.3-23.3
		c-0.5,6.2-7.2,22.3-20.7,48.6c-12.9,25.9-19.7,43-19.7,51.8c0,3.6,1,6.2,3.6,7.2C201.3,296.7,203.4,295.7,203.4,294.2z"/>
	<path id="XMLID_643_" class="st0" d="M301.6,50H198.7L55.1,397.5V450l17.4,0c0.6-7.3,5.2-14.5,14.4-14.5c14.5,0,23.3-9.3,31.1-34.2
		c2.6-2.6,7.8-12.9,16-32.1c8.8-19.1,12.9-31.6,12.9-38.3c1-1,6.7-14.5,17.1-40.9c10.4-26.4,15.5-40.9,15.5-42.4
		c0.5-1.6,2.6-6.2,6.7-14c4.7-8.3,6.7-14.5,6.7-18.6c0-6.7,1.6-14,4.1-21.7c3.1-7.8,7.8-17.6,14-29c6.7-11.9,10.9-19.7,12.4-23.3
		c3.6-5.2,5.7-11.9,6.2-20.7c1-8.8,2.6-14.5,5.2-18.1c3.6-4.1,6.2-6.2,7.8-6.2c2.1,0,3.1-0.5,6.7-0.5c11.4,0,18.1,5.2,19.7,15.5
		c-0.5,0.5-1,1-1,2.1c0,1.6,6.7,12.4,6.7,20.2c1,1,3.1,4.1,5.7,8.8c13.5,39.3,25.4,68.8,36.2,88.5c3.6,8.3,5.2,15.5,5.2,21.2
		c0,0.5,1.6,2.6,4.1,6.7c4.7,7.2,9.3,19.1,15,35.7c5.7,16,9.8,27.4,12.9,34.2c8.3,12.4,13.5,34.2,19.7,44.5
		c3.6,6.2,5.2,12.4,5.2,19.1c0,1,2.1,5.2,5.7,12.4c3.6,7.2,5.7,11.4,5.7,12.4c0,7.8,4.7,14,14.5,17.6c18.5,4.3,22.6,2.1,23.2,15.6
		l16.9,0v-53L301.6,50z"/>
</g>
</svg>
