<?xml version="1.0" encoding="utf-8"?>
<!-- Generator: Adobe Illustrator 19.0.0, SVG Export Plug-In . SVG Version: 6.00 Build 0)  -->
<svg version="1.1" id="Layer_1" xmlns="http://www.w3.org/2000/svg" xmlns:xlink="http://www.w3.org/1999/xlink" x="0px" y="0px"
	 viewBox="0 0 550 550" style="enable-background:new 0 0 550 550;" xml:space="preserve">
<style type="text/css">
	.st0{fill:#3B2B0A;}
</style>
<g id="XMLID_10488_">
	<g id="XMLID_10516_">
		<path id="XMLID_10519_" class="st0" d="M159.9,347.8c0-7.6,13.3-1.7,13.3-11c0-1.1-0.8-3.4-2.3-6.6c-0.8-2.8-2.1-6.1-4.2-10
			c-1.9-4-3-7.8-3.4-11c-2.1-5.5-4.4-8.3-6.8-8.3h-4.2c-1.3,0.6-5.1,0.6-11,0.4c-5.9-0.2-9.5-0.4-10.8-0.4c-0.6,0-2.1,0.2-2.8,0.2
			h-4c-1.7,0.4-2.8,0.9-3,1.9v0.2c0.2,0.2,0.2,0.2,0.2,0.4c0,0.9-0.6,2.5-1.7,4.5c-0.9,2.1-1.5,3.4-1.5,3.6c0,2.1-1.1,6.1-3.6,11.9
			c0,0.6-0.6,2.5-1.9,5.3c-1.3,2.8-1.9,5.3-1.9,7.6c0,10.6,13.3,2.1,13.3,10.6c0,0.4,0,0.8-0.1,1.1l17.3,0l19.2,0
			C160,348,159.9,347.9,159.9,347.8z"/>
		<path id="XMLID_10518_" class="st0" d="M129.3,291.2H141c0.8,0,3.2-1.1,3.4-1.1c1.3,0,4.4,0.8,5.1,0.8c4,0,6.1-0.4,6.1-1.3
			c0-2.1-2.7-8.5-7.8-19.3c-0.6-0.9-0.8-1.5-0.8-1.3c0-0.4-0.9-2.8-3-7.6c-2.1-4.7-3.2-7.6-3.4-8.5c-0.2,2.3-2.7,8.1-7.6,17.8
			c-4.7,9.5-7.2,15.7-7.2,18.9c0,1.3,0.4,2.3,1.3,2.7C128.5,292.1,129.3,291.7,129.3,291.2z"/>
		<path id="XMLID_10517_" class="st0" d="M165.2,201.8h-37.6L75,329v19.2l6.4,0c0.2-2.7,1.9-5.3,5.3-5.3c5.3,0,8.5-3.4,11.4-12.5
			c0.9-0.9,2.8-4.7,5.9-11.7c3.2-7,4.7-11.6,4.7-14c0.4-0.4,2.5-5.3,6.3-15c3.8-9.7,5.7-15,5.7-15.5c0.2-0.6,0.9-2.3,2.5-5.1
			c1.7-3,2.5-5.3,2.5-6.8c0-2.5,0.6-5.1,1.5-8c1.1-2.8,2.8-6.4,5.1-10.6c2.5-4.4,4-7.2,4.5-8.5c1.3-1.9,2.1-4.4,2.3-7.6
			c0.4-3.2,0.9-5.3,1.9-6.6c1.3-1.5,2.3-2.3,2.8-2.3c0.8,0,1.1-0.2,2.5-0.2c4.2,0,6.6,1.9,7.2,5.7c-0.2,0.2-0.4,0.4-0.4,0.8
			c0,0.6,2.5,4.5,2.5,7.4c0.4,0.4,1.1,1.5,2.1,3.2c4.9,14.4,9.3,25.2,13.3,32.4c1.3,3,1.9,5.7,1.9,7.8c0,0.2,0.6,0.9,1.5,2.5
			c1.7,2.7,3.4,7,5.5,13.1c2.1,5.9,3.6,10,4.7,12.5c3,4.5,4.9,12.5,7.2,16.3c1.3,2.3,1.9,4.5,1.9,7c0,0.4,0.8,1.9,2.1,4.5
			c1.3,2.7,2.1,4.2,2.1,4.5c0,2.8,1.7,5.1,5.3,6.4c6.8,1.6,8.3,0.8,8.5,5.7l6.2,0v-19.4L165.2,201.8z"/>
	</g>
	<g id="XMLID_10507_">
		<path id="XMLID_10515_" class="st0" d="M456.4,268.3l-0.2,0.1c-0.3,0.1-0.4,0.4-0.4,0.7c0,0.2,0,0.3,0,0.4h16.5c0,0,0-0.1,0-0.1
			l0.2-0.4c0.2-0.5,0.5-1.2,0.5-1.6l0.2-0.8c0-1.1,0.1-1.3,0.1-1.4c0,0,0-0.1,0-0.1c0-0.4-0.5-0.9-0.7-0.9c-0.7,0-1.4,0.4-1.9,0.9
			c-0.4,0.4-1.2,1.4-1.4,1.6c-0.8,0.5-1.8,0.8-2.9,0.8c-1.7,0-2.5-0.7-2.5-2c0-0.1,0.2-1.1,0.2-1.2c-0.1-0.7-0.2-1.5-0.2-2.5
			c0-0.4-0.1-0.8-0.1-1.4c0-0.9,0.2-2.5,0.2-3.4c0-0.1-0.1-0.4-0.1-0.6c0,0,0.1-0.4,0.1-0.4v-2.1c0-0.1,0.1-0.3,0.1-0.5
			c0-0.1-0.1-0.2-0.1-0.3c-0.1-1,3.3-0.3,3.2-2.5c0-0.5-0.5-0.8-1.5-0.8c-0.9,0-3.7,0.3-6.7,0.3c0,0-1-0.1-1-0.1
			c-1.4,0-2.2,0.2-2.2,0.5c0,1.2,1.4,2,2.5,2.4c0.3,0.1,0.4,1,0.4,2.7c0,1.3-0.1,3.3-0.1,3.3c0,0.8,0.1,1.6,0.1,1.6
			c0,0.5,0,1.1-0.1,1.8c0,0.2,0,0.4,0.2,0.6l0,0.1l-0.2,3.6C458.6,267.2,457.9,267.7,456.4,268.3z"/>
		<path id="XMLID_10514_" class="st0" d="M433.5,269.5c0.3-0.4,0.3-0.8,0.3-0.9c0-1.6,0.7-2.6,0.7-3c0-0.6-0.4-1.1-1.5-1.1
			c-0.2,0-1,0.9-1.7,1.7l-0.5,0.5c-0.2,0.8-1.3,1.1-3.1,1.1c-1,0-1.7-0.2-1.9-0.6c-0.2-0.4-0.4-1.6-0.4-3.6c0-0.1,0-0.3,0.1-0.6
			c-0.1-0.2-0.1-0.5-0.1-1c0-0.9,0.3-1.3,0.8-1.3c0.2,0,0.3,0,0.4,0.1l0,0c0,0,0-0.1-0.1-0.2c3.7,0,2.9,2.7,3.9,2.7h0.2
			c0.1,0,0.3,0,0.4,0c0,0,0.7-0.4,0.7-1.3c0-0.1,0-0.3-0.1-0.5l0-0.3c0-0.1,0-0.7,0.2-1.6l0.3-2.1l-0.1-0.3c-0.1-0.4-0.4-1-1.3-1
			c-0.3,0-0.8,0.4-1.5,1.1c-0.8,0.7-1.3,1.1-1.7,1.1c-0.1,0-0.5,0-0.7,0c-0.8,0-1.4-0.4-1.4-3.8c0-1.1,0.2-1.7,0.8-1.9
			c0.7-0.3,1-0.3,2-0.3c3.6,0,2.5,2.8,4.7,2.8c0.6-0.2,0.9-0.8,0.9-1.7c-0.2-0.1-0.3-1.2-0.3-3.2c-0.1-0.3-0.3-0.5-0.6-0.5h-5.1
			c-0.3,0-1.6,0-1.9,0c-0.4,0-0.8,0-0.8,0c-0.5,0-0.8,0.1-1.1,0.1c-0.5,0-1.2,0-2.1-0.1c-0.9-0.1-1.6-0.2-2.1-0.2
			c-0.1,0-0.3,0-0.5,0c-0.2,0-0.9,0-1.1,0c-0.4,0-0.8,0.6-0.8,1c0,0,0,0.1,0,0.2c0.1,0.8,0.7,1.2,1.8,1.2c0.8,0,1.1,0.9,1.1,2.8
			c0,0.3,0,1,0,1.3c0.1,2.3,0.1,5-0.2,8.2v0.5c0,0.2,0.1,0.8,0.1,0.9c0,2.9-2.4,1.9-2.5,2.5c-0.4,0.5-0.6,0.8-0.8,0.8l-0.1,0.5
			c0,0,0,0.1,0,0.1H433.5z"/>
		<path id="XMLID_10513_" class="st0" d="M373.8,252.3c0.3,0.3,0.8,0.4,1.4,0.4c0.3,0.3,0.4,0.6,0.4,0.9c0,0.2-0.1,0.5-0.1,0.5
			c0,0.5,0.1,0.7,0.1,0.8c0,2.2-0.3,3-0.3,3.2c0,2.6,0,3.5,0,3.7c0,0.2-0.1,1.1-0.1,2.1c0,1.4,0.3,2,0.6,2.4l0.1,0.1
			c0.3,0.7,0,1,3.4,2.8c0,0,0.3,0.1,0.7,0.2h8.8c0.7-0.3,1.4-0.8,2-1.5c1.3-1.4,2-2.9,2-4.6v-2.7c0,0,0.1-0.4,0.1-0.9
			c-0.1-0.5-0.1-0.9,0.1-1.1v-4.9c0-0.4,0.3-0.8,0.8-1.1l0.8-0.5c0-0.3,1-0.6,1-1.1c0-0.6-0.6-1.2-1.1-1.2h-5
			c-1.4,0-1.7,0.4-1.7,1.5c0,0.6,0.5,0.9,1.6,1c0.8,0.3,1.3,1.2,1.3,2.7c0,0.3,0,0.9,0,1.1c0,1.5,0,2.9-0.4,5.8
			c-0.3,2.9-1.2,5-2.4,5c-0.1,0-0.2,0-0.3,0c-0.3,0-0.7,0.1-1.1,0.3l-0.6,0.3c-0.3,0-1.1-0.1-2.3-0.3c-1.1-0.3-1.7-0.5-1.7-0.7
			c-1,0-1.5-1.7-1.5-5c0-2,0.3-4.9,0.3-4.8c0-5.1,0.3-2.3,0.8-4c0.5-0.3,1.7-0.4,1.7-0.6c0.1,0,0.2-0.2,0.3-0.4l0.2-0.3
			c0-0.9-1.2-1.4-3.7-1.4c-0.6,0-1.8,0-2.3,0c-5.7,0-4.2,0.6-4.8,1.1C373,251.4,373.4,252.1,373.8,252.3z"/>
		<path id="XMLID_10512_" class="st0" d="M330,265.4l-0.1,0.3c-0.2,0.4-0.3,0.9-0.4,1c-1.1,1.1-2.5,1-2.5,1.8c0,0.1,0,0.3,0,0.4
			c0,0.3,0.1,0.5,0.4,0.7h8.6c0.5-0.3,1.3-1.5,0.2-2.2c-0.9-0.7-2.8-0.7-3-1.3c-0.3-0.3-0.3-0.9-0.4-0.9v-1.5
			c0.1-0.2,0.1-0.3,0.1-0.3c0,0-0.1-0.3-0.1-0.4v-0.3c0.1-0.2,0.1-0.3,0.1-0.5l0-0.2c0-0.5-0.1-1.6-0.1-2v-0.1c0-0.7,0-1.3,0-1.5
			l0-0.1l0.1-0.3v-1.5c0-0.1,0.2-0.4,0.3-0.4c0.4,0,0.9,0.4,1.7,1.2c0.8,0.8,1.5,1.6,2.1,2.4c0.6,0.8,0.9,1.2,0.9,1.3
			c0,0,0.7,0.9,2,2.5c1.4,1.6,2.8,3.1,4.4,4.8c0.6,0.6,1.1,1.1,1.5,1.5h2.7c0.1-0.5,0.1-0.9,0.1-0.9c0-0.8,0-1.9,0-3.3V262v-0.5
			c0-0.4-0.1-0.7-0.1-0.9l0.1-0.4c0-0.9,0-2,0.1-3.2c0-1.3,0.1-2.4,0.1-3.3c0-0.8,0.4-1.6,0.8-1.6c0,0,0.2,0,0.3,0
			c1,0,1.4-0.8,1.7-1.2l0-0.1c0.1-1.3-1.1-1.1-2-1.2c-1.4,0-2.6,0.2-2.7,0.2c0,0-0.9-0.1-1.2-0.1c-1.7,0-2.6,0.3-2.8,1v0
			c0.8,0.8,0.4,1.8,1.8,1.6c0.1,0,0.4,0,0.4,0c0,0,0.1,0,0.2,0c0.5,0.6,0.7,1.2,0.7,1.6v1.2c0,1.1,0,1.7-0.1,1.7
			c0,0.3,0.1,0.8,0.1,1.1c0,1.4-0.3,2.4-0.8,2.9c-0.8-0.8-2.3-1.8-2.3-2c0-0.1-0.4-0.6-1.1-1.3c-0.7-0.7-1.2-1.1-1.3-1.2
			c0-0.2-0.3-0.4-0.6-0.8c-0.4-0.4-0.6-0.6-0.6-0.7c0-0.3-0.4-0.8-1.1-1.4l-1.1-1c-1.4-2.1-2.7-2.5-2.9-2.5c-0.5,0-1.2,0-2.2,0
			c-1,0-1.7,0-2.2,0c-0.4,0-1,0.1-1.7,0.3c-0.7,0.2-1,0.4-1,0.6c0,0.6,0.6,1,1.6,1.3c1.1,0.3,1.7,0.8,1.7,1.3c0,0.1,0,0.2,0,0.3
			c0.2,0.3,0.1,0.6,0.2,1.2c0,0.5-0.1,1.7-0.3,3.7C330.2,260.6,330.1,262.9,330,265.4z"/>
		<path id="XMLID_10509_" class="st0" d="M292.7,269.5c0-0.1,0-0.2,0-0.4v-0.3c0-0.9-1.6-1.4-1.6-1.5c-0.1-0.1-0.1-0.3-0.1-0.4
			c0-0.1,0-0.4,0-0.5c0-0.3,0.2-0.8,0.4-1.3c0.3-0.6,0.4-0.9,0.5-1c0.3,0,0.9-0.5,2.5-0.5h0.4c0.2,0,0.4,0.1,0.7,0.1h0.4
			c0.5,0,0.8,0.2,1.1,0.5l0.4,1.1c0.3,0.6,0.4,1.1,0.3,1.7c-0.1,0.6-0.4,0.9-0.9,0.9c-0.1,0-0.2,0-0.3,0h-0.2l0.1,0.1
			c-0.5,0.5-0.7,0.8-0.7,1c0,0.1,0.1,0.2,0.1,0.3c0,0.1,0,0.2,0.1,0.3h9.8c0-0.2,0.1-0.4,0-0.5c-0.4-0.7-0.9-1.2-1.6-1.6
			c-0.4-0.3-0.8-1-1.1-2c-0.2-0.6-0.6-1.5-1.1-2.6c-0.6-1.1-0.9-2-1.1-2.7c-0.8-2.2-1.4-3.6-1.7-4.2c0-0.1,0-0.3,0-0.7
			c-0.2-0.1-0.3-0.4-0.5-0.8c-0.3-0.6-0.3-1.7-0.6-2.3l-0.4-1.1l-0.1-0.1c0-0.7-0.5-1-0.9-1h-0.3l0.1-0.1c-0.1,0-0.3,0-0.3-0.1
			l-0.1,0l-1.4,1.4l0.1,0h0.1c0,0.5-0.1,0.9-0.4,1.2c-0.2,0.2-0.5,0.7-0.8,1.4l-0.5,1.2c-0.4,1-0.2,0.8-1,1.9c0,0.3-0.1,0.6-0.3,0.9
			c-0.4,0.6-0.9,1.6-1.5,2.8c-0.6,1.2-1,2.1-1.3,2.5c-0.3,0.4-0.5,0.6-0.5,0.7c0,0-0.2,0.5-0.7,1.3l-0.7,1.3c0,0.6-1.3,1.1-1.7,1.1
			c-0.4,0-1,1.1-1,1.4c0,0.2,0.1,0.4,0.1,0.6H292.7z M293.3,260.7c0-0.1,0-0.3,0.2-0.6c0.3-0.5,0.4-1.4,0.7-1.7
			c0.2-0.2,0.4-0.3,0.8-0.3h0.2c0.2,0.6,0.4,1,0.6,1.3v1.6c0,0.2-0.3,0.3-0.8,0.3h-0.3c-0.3-0.1-0.9-0.2-1.2-0.2
			C293.2,260.9,293.3,260.7,293.3,260.7z"/>
		<path id="XMLID_10508_" class="st0" d="M242.3,269.5c0-0.5-0.6-1-1.6-1.5c-1.1-0.6-1.6-1.1-1.6-1.5c0-0.2,0.1-0.5,0.1-0.6
			c0,0,0-0.1-0.1-0.1c0-2.3-0.1-3.5-0.1-3.7c0-0.9,0.1-1.6,0.2-2.1c0.1-0.5,0.3-1.4,0.4-2.8c0.6,0.2,1.2,1.2,1.4,1.9l0.2,0.5
			c0,0.8,0.4,1.6,1.1,2.4c0.7,0.8,1.1,1.5,1.2,2.1c0.3,0.4,0.6,1,1,1.9c0.4,0.9,0.8,1.7,1.2,2.2c0.4,0.5,0.9,0.8,1.4,0.8
			c0.9,0,1.5-1.7,1.7-2.4l0.1-0.2c0-0.4,0.8-1.2,0.8-1.4c0,0,0,0,0-0.1v0c0.3-0.4,0.8-1.3,1.6-2.8c0.8-1.5,1.3-2.5,1.5-2.8
			c0.3-0.3,1-2.3,1.4-2.3c0.1,0,0.3,0.3,0.3,0.4l-0.1,0.3c0.1,0,0.3,1.2,0.3,1.2c0,0.2-0.1,0.5-0.1,0.9c0,0.3,0,0.9,0,1.8
			s0.1,1.7,0.1,2.2c0,2.8-0.5,4.2-1.6,4.2h-0.2c-0.5,0-1.1,0.6-1.1,0.8c0,0.3,0,0.5,0.1,0.7h11c0-0.2,0.1-0.4,0.1-0.8
			c0-0.1-1-0.6-1-0.7c-1.5,0-2.2-0.9-2.2-2.6c0-0.2,0.1-1,0.1-1.2c0-0.4-0.2-1.3-0.2-1.5c0-0.6,0-1.4,0.1-2.4c0-1,0.1-1.7,0-2.2
			c-0.1-0.3-0.1-0.8-0.1-1.5c0-0.7,0-1.2,0-1.5v-0.3c0-2.3,0.5-2.7,1.2-2.7h0.2c0.4,0,2.1-0.6,2.1-1.1c0,0,0-0.1-0.1-0.2l-0.1-0.1
			c0,0,0-0.1,0.1-0.1c0-0.5-1.1-1.1-1.3-1.1c-5.3,0-7.9,0.5-7.9,1.6c-0.5,0.9-1,2-1.2,2.3l-0.1,0.3c0,0-0.2,0.5-0.8,1.4l-1.6,3
			c-0.5,1-0.8,1.7-0.8,2c0,0,0,0.1,0.1,0.1c0,0.6-0.8,1.2-0.9,1.4h-0.3c-0.9-0.9-1.1-1.8-1.4-1.9c-0.3-1.1-0.7-1.8-1.1-2.3
			c-0.4-0.4-0.6-0.9-0.6-1.4c0-0.1-0.2-0.4-0.6-1c-0.4-0.6-0.6-0.9-0.6-0.9l-0.1-0.3c-0.8-1.9-1.1-2.6-2.1-3.5
			c-0.5-0.4-1-0.6-1.6-0.6c-1.6-0.1-3-0.1-4.3-0.1c0,0-0.3,0-0.4,0c-0.4,0-1.4,0.4-1.4,0.5l0,0.1c0,0.1-0.1,0.2-0.1,0.2
			c0,1.3,0.9,1.9,2.8,1.9c0,0,0.3,0.5,0.7,0.8c0,1.1-0.3,3-0.6,5.6c-0.3,2.6-0.4,4.6-0.4,6.1c0.1,0.3,0.1,0.4,0.1,0.6
			c0,1-0.6,1.8-0.6,1.8c0,0.3-0.4,0.5-1.1,0.7c-0.8,0.1-1.1,0.2-1.1,0.2c0,0.1-0.5,0.8-0.5,1.2c0,0,0,0.1,0,0.1H242.3z"/>
	</g>
	<g id="XMLID_10489_">
		<g id="XMLID_10493_">
			<path id="XMLID_10504_" class="st0" d="M325.5,328.4v-0.7c0-1.8-3.2-2.8-3.2-3.1c-0.2-0.3-0.3-0.6-0.3-0.9c0-0.3,0.1-0.9,0.1-0.9
				c0.1-0.7,0.4-1.5,0.9-2.6c0.5-1.1,0.9-1.8,1-2c0.5,0,1.8-1,5-1h0.9c0.3,0.1,0.9,0.2,1.5,0.2h0.8c1,0,1.7,0.3,2.1,1l0.9,2.1
				c0.6,1.1,0.8,2.3,0.6,3.5c-0.3,1.2-0.9,1.8-1.8,1.8c-0.2,0-0.3,0-0.6-0.1H333l0.3,0.3c-0.9,0.9-1.5,1.6-1.5,2
				c0,0.3,0.2,0.4,0.2,0.5c0,0.1,0,0.2,0.1,0.3h19.9c0-0.3,0-0.5,0-0.7c-0.8-1.4-1.9-2.4-3.2-3.2c-0.9-0.6-1.5-2-2.1-4.1
				c-0.3-1.3-1.1-3-2.2-5.2c-1.1-2.3-1.8-4.1-2.1-5.5c-1.6-4.4-2.7-7.2-3.5-8.4c-0.1-0.3-0.1-0.7-0.1-1.4c-0.3-0.3-0.7-0.8-0.9-1.5
				c-0.6-1.3-0.6-3.3-1.2-4.7l-0.9-2.1l-0.2-0.3c0-1.4-1-2-1.8-2H333l0.3-0.2c-0.3,0-0.5-0.1-0.7-0.2l-0.3-0.1l-2.9,2.7l0.2-0.1h0.2
				c0,1-0.3,1.9-0.8,2.5c-0.4,0.4-0.9,1.4-1.5,2.9l-1,2.5c-0.9,2-0.3,1.7-2,3.8c0,0.6-0.2,1.3-0.6,1.9c-0.8,1.3-1.8,3.2-3,5.7
				c-1.2,2.5-2,4.2-2.6,5c-0.6,0.9-0.9,1.3-0.9,1.4c0,0.1-0.4,1-1.4,2.6l-1.5,2.6c0,1.3-2.6,2.1-3.3,2.1c-0.8,0-2,2.1-2,2.7
				c0,0.2,0.1,0.6,0.2,0.9h16C325.5,328.7,325.5,328.5,325.5,328.4z M326.7,311.4c0-0.3,0.1-0.6,0.3-1.2c0.7-0.9,0.8-2.8,1.4-3.5
				c0.3-0.4,0.9-0.6,1.5-0.6h0.3c0.4,1.2,0.9,2,1.3,2.6v3.2c-0.1,0.3-0.6,0.5-1.6,0.5h-0.5c-0.6-0.3-1.8-0.3-2.4-0.4
				C326.5,311.8,326.7,311.5,326.7,311.4z"/>
			<path id="XMLID_10498_" class="st0" d="M375.4,327.3c-0.5-0.4-1.2-0.7-1.9-0.7c-1.4,0-2.8-0.7-2.8-2.6v-0.4
				c-0.6-0.6-0.9-2.2-0.9-4.9c0-3.9,0.4-5.8,1.3-5.8l0.4,0.2c3.7,3.2,4.4,4.8,5.6,7.4c0.6,1.3,1.5,2.8,2.8,4.4c0,1.5,1.3,3.1,2.1,4
				h13.8c0-0.2,0.1-0.4,0.1-0.6c0-0.4-0.4-0.9-1.2-1.2l-1.2-0.5c0-1.2-5-3.9-5-6.8c-2.4-3.9-4.1-6.9-5.1-9c0.4-2.2,6.8-4.5,6.5-8.4
				v-4.1c0-1.9-1.2-3.6-3.4-5.1c-2.2-1.6-3.8-2.4-4.8-2.4c-0.7,0-3.5-0.8-6.8-0.8c-1.5,0-4.7,0.8-11.8,0.8c-0.1,0-0.5,0-1.4-0.1
				c-0.8-0.1-1.3-0.1-1.4-0.1c-0.4,0-3.4,0.2-4.5,0.2c-1,0-1.5,0.6-1.5,1.8c0,1.3,0.5,2.1,1.7,2.5h2.1c0,0.3,1.9,1.7,1.9,3.9v3v4.3
				c0.3,2.6,0.2,3.1,0.2,3.4v0.1l-0.2,2.1l0.2,0.6v4.7c0,0.3-0.5,0.9-0.5,1c0,0.3,0.4,1.2,0.4,1.4c0,3.9-1.3,7.4-3.1,7.4
				c-0.8,0-1.8,1.1-2.1,1.1c-0.3,0-0.4,0.3-0.5,0.8h22.1C376.2,328.1,375.9,327.6,375.4,327.3z M371.4,295.2h3
				c2.3,1.2,3.8,2.2,4.2,3c0.4,0.8,0.7,2.6,0.7,5.4c0,0.7-0.7,1.8-2.2,3.1c-1,1-2.2,1.4-3.6,1.4h-0.4c-2.4,0-3-0.3-3-3.1
				c0-0.4,0.2-2.1,0.2-2.4c0-0.8-0.5-3.4-0.6-3.5C369.7,297.9,370.2,296.5,371.4,295.2z"/>
			<path id="XMLID_10495_" class="st0" d="M420.7,328.6c0-4.4-6.8-1.5-6.8-7.5c0-0.7,0.1-2.7,0.1-3.5v-1.1c0.1-0.1,0.2-0.4,0.2-0.7
				c0-1.2,0.7-1.7,2.2-1.7c1.4,0,4,0.8,4.1,0.8c2.9,0,4.8-0.3,5.8-0.8c1-0.5,1.8-0.8,2.2-0.8c0.1-0.1,0.8-0.6,2.3-1.4
				c1.5-0.9,2.3-1.9,2.3-2.9c0.9-2.1,2.9-1.6,2.9-6.9c0-3.5-2.9-12.8-13.1-12.8c-1.3,0-4,0.1-8.1,0.2c-4,0.1-7,0.2-8.9,0.2
				c-0.8,0-3.8-0.4-4.5-0.4c-2.4,1-2.4,0.6-2.4,1.6v0.4c0,0.3-0.1,0.6-0.1,0.9c0,1.1,5.2,1.3,5.2,6.6c0,0.7-0.1,2.2-0.3,4.7
				c-0.1,2.4-0.2,4.1-0.2,5.1c0.3,1.3,0.4,2.4,0.4,3.6v2.3c0,4.4-0.4,7.9-1.1,10.5c-0.4,0-1.3,0.6-2.3,1.8c-0.8,0.9-1.4,1.6-1.5,2
				h21.5C420.7,328.7,420.7,328.7,420.7,328.6z M414.1,296.9c0-2.5,2.2-2.8,2.4-2.8c1,0,2.2,0.2,3.8,0.6c1.5,0,2.9,1.5,3.5,2.7
				l0.4,1c0,0.4,0.4,2.6,0.4,3.4c0,2.3-0.3,3.9-0.7,4.5l-2.2,2.2c-0.5,0.3-1,0.6-1.3,0.9c-1.1,0.2-2,0.3-2.8,0.3c-1,0-2-0.3-3-0.7
				c0-0.4-0.8-2.3-0.8-3.1C414,301.3,414.1,298.3,414.1,296.9z"/>
			<path id="XMLID_10494_" class="st0" d="M473.6,327.3c0-3.2,1.4-5.2,1.4-6c0-1.2-0.8-2.2-3-2.2c-0.4,0-2,1.9-3.4,3.4l-1,1.1
				c-0.4,1.5-2.6,2.2-6.2,2.2c-2,0-3.3-0.4-3.8-1.2c-0.4-0.8-0.7-3.2-0.7-7.1c0-0.3,0.1-0.6,0.3-1.2c-0.2-0.4-0.3-1.1-0.3-2
				c0-1.8,0.5-2.7,1.6-2.7c0.4,0,0.6,0.1,0.9,0.2l0.1,0.1c0-0.1-0.1-0.2-0.3-0.4c7.3,0,5.9,5.3,7.7,5.3h0.4c0.3-0.1,0.5-0.1,0.8-0.1
				c0.1,0,1.4-0.7,1.4-2.7c0-0.3-0.1-0.6-0.2-1l-0.1-0.6c0-0.3,0.1-1.3,0.4-3.2l0.5-4.3l-0.3-0.6c-0.3-0.9-0.7-2-2.6-2
				c-0.5,0-1.5,0.7-3,2.1c-1.5,1.4-2.6,2.1-3.3,2.1c-0.3,0-1,0.1-1.3,0.1c-1.5,0-2.8-0.8-2.8-7.6c0-2.1,0.4-3.4,1.6-3.8
				c1.3-0.6,2-0.6,4-0.6c7.1,0,5,5.6,9.3,5.6c1.2-0.4,1.9-1.5,1.9-3.4c-0.4-0.3-0.5-2.3-0.6-6.3c-0.3-0.6-0.6-1-1.2-1h-10.1
				c-0.6,0-3.1,0.1-3.8,0.1c-0.7,0-1.5-0.1-1.6-0.1c-1,0.1-1.7,0.2-2.2,0.2c-1,0-2.4-0.1-4.3-0.3c-1.9-0.3-3.2-0.4-4.1-0.4
				c-0.2,0.1-0.5,0.1-1,0.1c-0.4,0-1.9-0.1-2.2-0.1c-0.7,0-1.7,1.2-1.7,2c0,0.1,0.1,0.3,0.1,0.4c0.3,1.5,1.4,2.3,3.6,2.3
				c1.5,0,2.2,1.9,2.2,5.6c0,0.6-0.1,2-0.1,2.5c0.3,4.5,0.2,10-0.4,16.3v1c0,0.4,0.2,1.6,0.2,1.9c0,5.8-4.7,3.8-4.9,5.1
				c-0.7,1-1.2,1.5-1.6,1.7l-0.2,0.8h33.7C473.6,328.1,473.6,327.5,473.6,327.3z"/>
		</g>
		<path id="XMLID_10490_" class="st0" d="M264.1,328.2c0.9-0.8,1.5-1.2,1.8-1.2c0.4-0.4,1.8-1.3,2.2-1.7c4.1-3.6,6.2-8.4,6.2-14.5
			c0-2.1-0.2-4-0.6-5.9c-1.5-4.4-3.2-7.1-5-8.4c-0.1-0.4-0.9-1.1-2.6-1.9c-1.7-0.9-2.6-1.5-2.9-1.9c-3.5-1.8-6.4-2.5-8.3-2.6
			l-5.4-0.3c-2.6-0.1-5.2-0.3-7.6-0.5l-0.4,0.2c-2.2,0.3-3.8,0.4-5,0.4c-1.3,0.1-2.6,0.6-3.7,1.7c-0.3,0.3-0.4,0.6-0.4,1
			c0,0.6,1,2.1,4.5,3c0,0.4,0.5,1.3,0.5,1.4c0,1.3-0.4,3.6-0.4,4.3v5.2c0.1,1-0.3,1.2-1.4,1.2c-1.6,0-2.7,0.1-3.2,0.4
			c0,2.7,0.1,4,0.4,4l1.5-0.1h1.7c0.4,0,1,0.4,0.9,1.2c0,0.6,0.2,2.4,0.2,5.3c0,4.9-0.8,7.4-2.3,7.4l-0.6,0.4
			c-0.7,0.6-1.7,1.5-1.7,2.2c0.2,0,0.3,0.1,0.5,0.3h30.4C263.6,328.6,263.8,328.4,264.1,328.2z M247.1,319.5c0-0.4,0.1-1.8,0.1-4.2
			c-0.1-0.3-0.1-0.6-0.1-1.2v-0.7c-0.2-0.8,0.2-1.2,1.1-1.2c1.4-0.1,2.6-0.2,3.5-0.2c2.8,0,5.2,0.1,5.7,0.1c0.6-0.3,0.9-1.1,0.9-2.6
			v-0.7c-0.1-0.6-0.4-1-0.6-1l-7.6,0.2l-1.8-0.1c-0.7,0-1.1-0.4-1-1.2c0-0.3-0.1-0.7-0.1-1c0-2.5,0.6-6.2,0.6-8.9
			c0-1.9,1-2.8,2.9-2.8c0.4,0,1.4,0.3,3.1,0.7c1,0,1.9,0.3,2.7,0.7c2.1,2.1,3.3,2,4.9,5.4c1.2,1.2,1,3.7,1.4,5.3
			c0.2,1.1,0.7,2.6,0.7,2.9c0,16.1-9.7,17.1-10.3,17.1C249.3,326.1,247.1,324.5,247.1,319.5z"/>
	</g>
</g>
</svg>
