<?xml version="1.0" encoding="utf-8"?>
<!-- Generator: Adobe Illustrator 19.0.0, SVG Export Plug-In . SVG Version: 6.00 Build 0)  -->
<svg version="1.1" id="Layer_1" xmlns="http://www.w3.org/2000/svg" xmlns:xlink="http://www.w3.org/1999/xlink" x="0px" y="0px"
	 viewBox="-684 291 550 500" style="enable-background:new -684 291 550 500;" xml:space="preserve">
<style type="text/css">
	.st0{fill:#2C2E0F;}
	.st1{fill-rule:evenodd;clip-rule:evenodd;fill:#2C2E0F;}
	.st2{fill:none;}
</style>
<g id="XMLID_3729_">
	<g id="XMLID_5896_">
		<path id="XMLID_5897_" class="st0" d="M-409,741c-110.3,0-200-89.7-200-200s89.7-200,200-200s200,89.7,200,200S-298.7,741-409,741
			z M-409,358.4c-100.7,0-182.6,81.9-182.6,182.6s81.9,182.6,182.6,182.6s182.6-81.9,182.6-182.6S-308.3,358.4-409,358.4z"/>
	</g>
	<g id="XMLID_3730_">
		<g id="XMLID_5862_">
			<path id="XMLID_5863_" class="st1" d="M-412.1,492.3c16.7,2.2,36.8-4.6,48.9,8.3c1.7,1.8,5.3,9.5,4.6,12
				c-0.1,0.3-5.9,9.3-12.9,8.3c-1.6,1.5-9.3,5.8-11.1,7.4c-1.9,1.6-1.9,7.6-7.4,8.3C-390,536.6-415.4,552.8-412.1,492.3z
				 M-387.2,502.4c2.8,2.7,6.4,4.6,10.1,1.8c1.1,2.1,10,4.2,12,0C-371.5,499-381.2,494.9-387.2,502.4z M-384.5,522.7
				C-384.4,522.7-384.4,522.7-384.5,522.7c3,0.4,4.9,0.4,6.7-2c0.6-0.8,2-2.1,0.7-4.5C-381.3,516.6-383.4,519.1-384.5,522.7z"/>
		</g>
		<g id="XMLID_5860_">
			<path id="XMLID_5861_" class="st1" d="M-338.3,522.7c6.3,2.6,10.7,11.1,6.5,16.6c-2.6-2.7-5.7-4.7-9.2-6.5
				C-339.2,530.5-341.3,524.1-338.3,522.7z"/>
		</g>
		<g id="XMLID_5858_">
			<path id="XMLID_5859_" class="st2" d="M-453.7,509.6c1.7,3-1.7,5.8,3.7,5.5c0.5-8.3-12.5-12.5-16.6-5.5
				C-463.5,509.4-460.5,509.8-453.7,509.6z"/>
		</g>
		<g id="XMLID_5856_">
			<path id="XMLID_5857_" class="st2" d="M-441.7,524.3c-1.4-2.6-0.8-7.2-4.6-7.4c-2.7,2.6-3.8,7.4-8.3,8.3c-3.7,0.4-4.2-3.6-6.5,0
				C-454.5,530-446.8,526.2-441.7,524.3z"/>
		</g>
		<g id="XMLID_5854_">
			<path id="XMLID_5855_" class="st2" d="M-418.6,622.3c4.5,4.7,15.6,5.7,21.3,4.6c0.2,0,3.5,0.2,3.7-1.8c0-0.1,1-3.3,0.9-5.5
				c-0.6-1.2-1.7-1.6-3.7-1.8c-7.4,0-27.2,0.8-22.3,4.5L-418.6,622.3z"/>
		</g>
		<g id="XMLID_3733_">
			<path id="XMLID_3734_" class="st0" d="M-497.9,512.6c-7.6,0.3-8.2,8.3-8.3,12.9c-0.4,13.4,13.8,41.5,13.8,46.1
				c1.8,1.2,4.4,1.8,6.5,2.8c3,10,4.5,20.2,9.2,30.4c4.5,9.8,12.1,16.8,16.6,24c6.1,9.7,4.7,13.4,0,21.2c-6,9.9-13.1,15.9-20.3,23.1
				c-16.5,6.2-30.7,10.7-46.9,17.6c20.2,17.6,44.5,30.7,71.2,37.8c3.6-5.3,9.7-9.1,20-9.2c3.2,0,7-4,10.1-0.9
				c2.4,1.9,4,9.3,7.4,12.9c2.9,0,13-0.6,13.8-0.9c5.4-2.1,29-66.2,12-60c-4,1.5-21.1,12.2-24,14.8c-3,2.7-1.4,4-4.6,4.6
				c-3.9,0.7-29.7-20.7-34.2-21.5c0.7-6.3-1.3-9.8-0.9-15.7c4.8,5.7,7.4,13.5,12.9,18.4c0,0,17.8,10.1,22.2,10.4
				c17.3-12.5,40.6-28.3,55.3-47c19.7-25,19.7-43.8,19.4-51.7c0,0-14.9,15.4-49.8,3.7c-5.9,0.4-14.9-2.2-21.2-1.8l-2.8,0.2
				c-1,0.1-2.5-1.5-3.7-1.1c0.2-2.2,4-0.5,4.6,0l2.2-0.2c1.1-3.2,3.3-5,4.3-10c4.4-3.9,12.6-4,11.1-13.8c-6.5-0.1-13.3-0.2-16.6,3.7
				c-15.6-2.5-8.2-20-7.4-33.2c0.7-11.4-1.9-23.8-1.8-31.4c0,0-44-9.9-33.2-48c2.9-1,7.7-5.2,10.2-4.6c4.5,1.8,16.3-3.4,24-0.9
				c12.2-5,42.7-1.7,52.6-3.7c0.6,1,0.9,1.5,1.8,2.8c18.3,0.7,16.5,21.2,19.4,30.4c-0.6,0-1.2,0-1.8,0c1.5,12,12.2,20.2,11.1,35.1
				c2.9,2.3,2.5,3.8,4.6,5.5c6.3-3.6,6.6-13.1,16.6-12.9c10.5-10.4,8-40.1,0.9-54.4c0.2,0.4-0.9,1.1-0.9,0
				c-4.8-25.6-21.3-47.5-44.3-58.1c-19.3,1.6-35.8-5-51.7-3.7c-1.3,0.1-3.3,1.6-4.6,1.8c-3.9,0.6-7.2-0.8-11.1-0.9
				c-11.2-0.3-17.2,3.3-24,5.5c-18.6,6.1-23.8,9.4-33.2,21.2c-3.5,4.5-6.6,9.7-9.2,13.8c-5.2,8.2-13,22.9-13.8,32.3
				c-1,11.5,3.8,16.3,6.5,23.1C-504.4,492.4-501.3,503-497.9,512.6z M-396.5,617.7c1.9,0.2,3.1,0.6,3.7,1.8c0.1,2.2-0.9,5.4-0.9,5.5
				c-0.2,2.1-3.5,1.8-3.7,1.8c-5.7,1.1-16.8,0.1-21.3-4.6l-0.1-0.1C-423.6,618.5-403.9,617.7-396.5,617.7z M-441.7,524.3
				c-5.1,1.8-12.8,5.7-19.4,0.9c2.2-3.6,2.7,0.4,6.5,0c4.5-0.9,5.6-5.7,8.3-8.3C-442.5,517.2-443.1,521.7-441.7,524.3z M-450,515.1
				c-5.4,0.3-2-2.5-3.7-5.5c-6.8,0.3-9.8-0.1-12.9,0C-462.5,502.6-449.5,506.7-450,515.1z"/>
		</g>
		<g id="XMLID_3731_">
			<path id="XMLID_3732_" class="st0" d="M-363.2,662c-5.7,9.7-20.2,40.4-34.4,71.8c52.5-3.8,98.6-30.4,128.6-69.9l-31.6-22.3
				c-7-7.2-15.8-10.9-24-17.5c-7.2-5.8-11.4-16.3-20.3-18.5c0.7,5,4.6,9.3,3.7,14.8C-343.4,634.4-354.7,647.4-363.2,662z"/>
		</g>
	</g>
</g>
</svg>
