<?xml version="1.0" encoding="utf-8"?>
<!-- Generator: Adobe Illustrator 19.0.0, SVG Export Plug-In . SVG Version: 6.00 Build 0)  -->
<svg version="1.1" id="Layer_1" xmlns="http://www.w3.org/2000/svg" xmlns:xlink="http://www.w3.org/1999/xlink" x="0px" y="0px"
	 viewBox="0 0 283.5 283.5" style="enable-background:new 0 0 283.5 283.5;" xml:space="preserve">
<style type="text/css">
	.st0{fill:#5B6571;}
	.st1{fill:#F5BF9B;}
	.st2{fill:#99605C;}
	.st3{fill:#FFFFFF;}
	.st4{fill:#010101;}
	.st5{fill:#ED927F;}
	.st6{fill:#67362F;}
</style>
<g id="XMLID_1_">
	<path id="XMLID_27_" class="st0" d="M75.6,129.8h17.9c2.7,0,4.9-2.2,4.9-4.9V70.4c0-2.7-2.2-4.9-4.9-4.9H75.6
		c-2.7,0-4.9,2.2-4.9,4.9v54.5C70.7,127.6,72.9,129.8,75.6,129.8z"/>
	<path id="XMLID_26_" class="st0" d="M189.6,129.8h17.9c2.7,0,4.9-2.2,4.9-4.9V70.4c0-2.7-2.2-4.9-4.9-4.9h-17.9
		c-2.7,0-4.9,2.2-4.9,4.9v54.5C184.7,127.6,186.9,129.8,189.6,129.8z"/>
	<circle id="XMLID_25_" class="st1" cx="83.8" cy="141.3" r="11.7"/>
	<circle id="XMLID_24_" class="st1" cx="198.6" cy="141.2" r="11.7"/>
	<circle id="XMLID_23_" class="st2" cx="83.5" cy="141.5" r="8.8"/>
	<circle id="XMLID_22_" class="st2" cx="198.6" cy="141.5" r="8.8"/>
	<path id="XMLID_21_" class="st0" d="M178.4,251.3h-73.8c-11.1,0-20.1-9.1-20.1-20.1V52.4c0-11.1,9.1-20.1,20.1-20.1h73.8
		c11.1,0,20.1,9.1,20.1,20.1v178.8C198.5,242.3,189.5,251.3,178.4,251.3z"/>
	<path id="XMLID_20_" class="st1" d="M174.4,238.9h-65.9c-9.9,0-18-8.1-18-18V61.4c0-9.9,8.1-18,18-18h65.9c9.9,0,18,8.1,18,18V221
		C192.4,230.9,184.3,238.9,174.4,238.9z"/>
	<path id="XMLID_19_" class="st0" d="M124.6,125.7c-0.5,0-1.1-0.2-1.5-0.6c-1.9-1.9-4.4-2.9-7.1-2.9s-5.2,1-7.1,2.9
		c-0.8,0.8-2.2,0.8-3,0c-0.8-0.8-0.8-2.2,0-3c5.6-5.6,14.6-5.6,20.2,0c0.8,0.8,0.8,2.2,0,3C125.6,125.5,125.1,125.7,124.6,125.7z"/>
	<path id="XMLID_18_" class="st0" d="M176.1,125.7c-0.5,0-1.1-0.2-1.5-0.6c-1.9-1.9-4.4-2.9-7.1-2.9c-2.7,0-5.2,1-7.1,2.9
		c-0.8,0.8-2.2,0.8-3,0c-0.8-0.8-0.8-2.2,0-3c2.7-2.7,6.3-4.2,10.1-4.2s7.4,1.5,10.1,4.2c0.8,0.8,0.8,2.2,0,3
		C177.2,125.5,176.6,125.7,176.1,125.7z"/>
	<circle id="XMLID_17_" class="st0" cx="119.8" cy="240.1" r="20"/>
	<circle id="XMLID_16_" class="st0" cx="160.8" cy="240.1" r="20"/>
	<circle id="XMLID_15_" class="st3" cx="117.3" cy="139.1" r="11.7"/>
	<circle id="XMLID_14_" class="st4" cx="117.3" cy="139.1" r="7.4"/>
	<circle id="XMLID_13_" class="st3" cx="165.6" cy="139.1" r="11.7"/>
	<circle id="XMLID_12_" class="st4" cx="165.6" cy="139.1" r="7.4"/>
	<circle id="XMLID_11_" class="st3" cx="111" cy="135.4" r="3.7"/>
	<circle id="XMLID_10_" class="st3" cx="159.8" cy="135.4" r="3.7"/>
	<path id="XMLID_9_" class="st2" d="M152.5,207.8h-22.1c-0.8,0-1.4-0.6-1.4-1.4v-5.1c0-0.8,0.6-1.4,1.4-1.4h22.1
		c0.8,0,1.4,0.6,1.4,1.4v5.1C153.9,207.2,153.3,207.8,152.5,207.8z"/>
	<path id="XMLID_8_" class="st5" d="M152.5,205.3h-22.1c-0.8,0-1.4-0.6-1.4-1.4v-5.1c0-0.8,0.6-1.4,1.4-1.4h22.1
		c0.8,0,1.4,0.6,1.4,1.4v5.1C153.9,204.7,153.3,205.3,152.5,205.3z"/>
	<path id="XMLID_7_" class="st0" d="M101.6,218.5c-4.7,0-8.5-3.8-8.5-8.5s3.8-8.5,8.5-8.5c14.2,0,25.8-11.6,25.8-25.8
		c0-4.7,3.8-8.5,8.5-8.5s8.5,3.8,8.5,8.5C144.4,199.3,125.2,218.5,101.6,218.5z"/>
	<path id="XMLID_6_" class="st0" d="M180.6,218.5c-23.6,0-42.8-19.2-42.8-42.8c0-4.7,3.8-8.5,8.5-8.5c4.7,0,8.5,3.8,8.5,8.5
		c0,14.2,11.6,25.8,25.8,25.8c4.7,0,8.5,3.8,8.5,8.5S185.3,218.5,180.6,218.5z"/>
	<path id="XMLID_5_" class="st6" d="M145.1,175.2h-7.9c-1.2,0-2.2-1-2.2-2.2v-36.9c0-1.2,1-2.2,2.2-2.2h7.9c1.2,0,2.2,1,2.2,2.2V173
		C147.3,174.2,146.3,175.2,145.1,175.2z"/>
	<path id="XMLID_4_" class="st1" d="M145.1,171.3h-7.9c-1.2,0-2.2-1-2.2-2.2v-36.9c0-1.2,1-2.2,2.2-2.2h7.9c1.2,0,2.2,1,2.2,2.2
		v36.9C147.3,170.4,146.3,171.3,145.1,171.3z"/>
	<circle id="XMLID_3_" class="st0" cx="142" cy="43.4" r="19.8"/>
	<path id="XMLID_2_" class="st0" d="M131.3,211.8h17.9c2.7,0,4.9,2.2,4.9,4.9v31.1c0,2.7-2.2,4.9-4.9,4.9h-17.9
		c-2.7,0-4.9-2.2-4.9-4.9v-31.1C126.4,214,128.6,211.8,131.3,211.8z"/>
</g>
</svg>
