<?xml version="1.0" encoding="utf-8"?>
<!-- Generator: Adobe Illustrator 19.0.0, SVG Export Plug-In . SVG Version: 6.00 Build 0)  -->
<svg version="1.1" xmlns="http://www.w3.org/2000/svg" xmlns:xlink="http://www.w3.org/1999/xlink" x="0px" y="0px"
	 viewBox="0 0 48 48" style="enable-background:new 0 0 48 48;" xml:space="preserve">
<style type="text/css">
	.st0{clip-path:url(#XMLID_22_);}
	.st1{fill:none;stroke:#000000;stroke-width:1.000000e-02;stroke-miterlimit:10;}
	.st2{fill:none;stroke:#000000;stroke-width:2.500000e-02;stroke-miterlimit:10;}
	.st3{fill:none;stroke:#000000;stroke-width:2.500000e-02;stroke-miterlimit:10;stroke-dasharray:1.8487,1.8487,1.8487,1.8487;}
	
		.st4{fill:none;stroke:#000000;stroke-width:2.500000e-02;stroke-miterlimit:10;stroke-dasharray:1.8487,1.8487,1.8487,1.8487,1.8487,1.8487;}
	.st5{fill:none;stroke:#000000;stroke-width:2.500000e-02;stroke-miterlimit:10;stroke-dasharray:1.8442,1.8442,1.8442,1.8442;}
	
		.st6{fill:none;stroke:#000000;stroke-width:2.500000e-02;stroke-miterlimit:10;stroke-dasharray:1.8442,1.8442,1.8442,1.8442,1.8442,1.8442;}
	.st7{fill:#E1C4C4;}
	.st8{fill:#93798C;}
	.st9{fill:#F3D9D9;}
	.st10{fill:#B59CB0;}
	.st11{fill:#F7EF7A;}
	.st12{fill:#F3EA00;}
</style>
<g id="Layer_2">
	<g id="XMLID_2_">
		<defs>
			<rect id="XMLID_3_" width="48" height="48"/>
		</defs>
		<clipPath id="XMLID_22_">
			<use xlink:href="#XMLID_3_"  style="overflow:visible;"/>
		</clipPath>
		<g id="XMLID_4_" class="st0">
			<g id="XMLID_367_">
				<line id="XMLID_438_" class="st1" x1="-19.3" y1="-11" x2="-19.3" y2="59"/>
				<line id="XMLID_437_" class="st1" x1="-18" y1="-11" x2="-18" y2="59"/>
				<line id="XMLID_436_" class="st1" x1="-16.8" y1="-11" x2="-16.8" y2="59"/>
				<line id="XMLID_435_" class="st1" x1="-15.6" y1="-11" x2="-15.6" y2="59"/>
				<line id="XMLID_434_" class="st1" x1="-14.3" y1="-11" x2="-14.3" y2="59"/>
				<line id="XMLID_433_" class="st1" x1="-13.1" y1="-11" x2="-13.1" y2="59"/>
				<line id="XMLID_432_" class="st1" x1="-11.9" y1="-11" x2="-11.9" y2="59"/>
				<line id="XMLID_431_" class="st1" x1="-10.6" y1="-11" x2="-10.6" y2="59"/>
				<line id="XMLID_430_" class="st1" x1="-9.4" y1="-11" x2="-9.4" y2="59"/>
				<line id="XMLID_429_" class="st1" x1="-8.2" y1="-11" x2="-8.2" y2="59"/>
				<line id="XMLID_428_" class="st1" x1="-6.9" y1="-11" x2="-6.9" y2="59"/>
				<line id="XMLID_427_" class="st1" x1="-5.7" y1="-11" x2="-5.7" y2="59"/>
				<line id="XMLID_426_" class="st1" x1="-4.4" y1="-11" x2="-4.4" y2="59"/>
				<line id="XMLID_425_" class="st1" x1="-3.2" y1="-11" x2="-3.2" y2="59"/>
				<line id="XMLID_424_" class="st1" x1="-2" y1="-11" x2="-2" y2="59"/>
				<line id="XMLID_423_" class="st1" x1="-0.7" y1="-11" x2="-0.7" y2="59"/>
				<line id="XMLID_422_" class="st1" x1="0.5" y1="-11" x2="0.5" y2="59"/>
				<line id="XMLID_421_" class="st1" x1="1.7" y1="-11" x2="1.7" y2="59"/>
				<line id="XMLID_420_" class="st1" x1="3" y1="-11" x2="3" y2="59"/>
				<line id="XMLID_419_" class="st1" x1="4.2" y1="-11" x2="4.2" y2="59"/>
				<line id="XMLID_418_" class="st1" x1="5.5" y1="-11" x2="5.5" y2="59"/>
				<line id="XMLID_417_" class="st1" x1="6.7" y1="-11" x2="6.7" y2="59"/>
				<line id="XMLID_416_" class="st1" x1="7.9" y1="-11" x2="7.9" y2="59"/>
				<line id="XMLID_415_" class="st1" x1="9.2" y1="-11" x2="9.2" y2="59"/>
				<line id="XMLID_414_" class="st1" x1="10.4" y1="-11" x2="10.4" y2="59"/>
				<line id="XMLID_413_" class="st1" x1="11.6" y1="-11" x2="11.6" y2="59"/>
				<line id="XMLID_412_" class="st1" x1="12.9" y1="-11" x2="12.9" y2="59"/>
				<line id="XMLID_411_" class="st1" x1="14.1" y1="-11" x2="14.1" y2="59"/>
				<line id="XMLID_410_" class="st1" x1="15.3" y1="-11" x2="15.3" y2="59"/>
				<line id="XMLID_409_" class="st1" x1="16.6" y1="-11" x2="16.6" y2="59"/>
				<line id="XMLID_408_" class="st1" x1="17.8" y1="-11" x2="17.8" y2="59"/>
				<line id="XMLID_407_" class="st1" x1="19.1" y1="-11" x2="19.1" y2="59"/>
				<line id="XMLID_406_" class="st1" x1="20.3" y1="-11" x2="20.3" y2="59"/>
				<line id="XMLID_405_" class="st1" x1="21.5" y1="-11" x2="21.5" y2="59"/>
				<line id="XMLID_404_" class="st1" x1="22.8" y1="-11" x2="22.8" y2="59"/>
				<line id="XMLID_403_" class="st1" x1="24" y1="-11" x2="24" y2="59"/>
				<line id="XMLID_402_" class="st1" x1="25.2" y1="-11" x2="25.2" y2="59"/>
				<line id="XMLID_401_" class="st1" x1="26.5" y1="-11" x2="26.5" y2="59"/>
				<line id="XMLID_400_" class="st1" x1="27.7" y1="-11" x2="27.7" y2="59"/>
				<line id="XMLID_399_" class="st1" x1="28.9" y1="-11" x2="28.9" y2="59"/>
				<line id="XMLID_398_" class="st1" x1="30.2" y1="-11" x2="30.2" y2="59"/>
				<line id="XMLID_397_" class="st1" x1="31.4" y1="-11" x2="31.4" y2="59"/>
				<line id="XMLID_396_" class="st1" x1="32.7" y1="-11" x2="32.7" y2="59"/>
				<line id="XMLID_395_" class="st1" x1="33.9" y1="-11" x2="33.9" y2="59"/>
				<line id="XMLID_394_" class="st1" x1="35.1" y1="-11" x2="35.1" y2="59"/>
				<line id="XMLID_393_" class="st1" x1="36.4" y1="-11" x2="36.4" y2="59"/>
				<line id="XMLID_392_" class="st1" x1="37.6" y1="-11" x2="37.6" y2="59"/>
				<line id="XMLID_391_" class="st1" x1="38.8" y1="-11" x2="38.8" y2="59"/>
				<line id="XMLID_390_" class="st1" x1="40.1" y1="-11" x2="40.1" y2="59"/>
				<line id="XMLID_389_" class="st1" x1="41.3" y1="-11" x2="41.3" y2="59"/>
				<line id="XMLID_388_" class="st1" x1="42.5" y1="-11" x2="42.5" y2="59"/>
				<line id="XMLID_387_" class="st1" x1="43.8" y1="-11" x2="43.8" y2="59"/>
				<line id="XMLID_386_" class="st1" x1="45" y1="-11" x2="45" y2="59"/>
				<line id="XMLID_385_" class="st1" x1="46.3" y1="-11" x2="46.3" y2="59"/>
				<line id="XMLID_384_" class="st1" x1="47.5" y1="-11" x2="47.5" y2="59"/>
				<line id="XMLID_383_" class="st1" x1="48.7" y1="-11" x2="48.7" y2="59"/>
				<line id="XMLID_382_" class="st1" x1="50" y1="-11" x2="50" y2="59"/>
				<line id="XMLID_381_" class="st1" x1="51.2" y1="-11" x2="51.2" y2="59"/>
				<line id="XMLID_380_" class="st1" x1="52.4" y1="-11" x2="52.4" y2="59"/>
				<line id="XMLID_379_" class="st1" x1="53.7" y1="-11" x2="53.7" y2="59"/>
				<line id="XMLID_378_" class="st1" x1="54.9" y1="-11" x2="54.9" y2="59"/>
				<line id="XMLID_377_" class="st1" x1="56.2" y1="-11" x2="56.2" y2="59"/>
				<line id="XMLID_376_" class="st1" x1="57.4" y1="-11" x2="57.4" y2="59"/>
				<line id="XMLID_375_" class="st1" x1="58.6" y1="-11" x2="58.6" y2="59"/>
				<line id="XMLID_374_" class="st1" x1="59.9" y1="-11" x2="59.9" y2="59"/>
				<line id="XMLID_373_" class="st1" x1="61.1" y1="-11" x2="61.1" y2="59"/>
				<line id="XMLID_372_" class="st1" x1="62.3" y1="-11" x2="62.3" y2="59"/>
				<line id="XMLID_371_" class="st1" x1="63.6" y1="-11" x2="63.6" y2="59"/>
				<line id="XMLID_370_" class="st1" x1="64.8" y1="-11" x2="64.8" y2="59"/>
				<line id="XMLID_369_" class="st1" x1="66" y1="-11" x2="66" y2="59"/>
				<line id="XMLID_368_" class="st1" x1="67.3" y1="-11" x2="67.3" y2="59"/>
			</g>
			<g id="XMLID_295_">
				<line id="XMLID_366_" class="st1" x1="-27.9" y1="44" x2="32.6" y2="79"/>
				<line id="XMLID_365_" class="st1" x1="-27.3" y1="42.9" x2="33.3" y2="77.9"/>
				<line id="XMLID_364_" class="st1" x1="-26.7" y1="41.9" x2="33.9" y2="76.8"/>
				<line id="XMLID_363_" class="st1" x1="-26.1" y1="40.8" x2="34.5" y2="75.8"/>
				<line id="XMLID_362_" class="st1" x1="-25.5" y1="39.7" x2="35.1" y2="74.7"/>
				<line id="XMLID_361_" class="st1" x1="-24.8" y1="38.6" x2="35.7" y2="73.6"/>
				<line id="XMLID_360_" class="st1" x1="-24.2" y1="37.6" x2="36.4" y2="72.5"/>
				<line id="XMLID_359_" class="st1" x1="-23.6" y1="36.5" x2="37" y2="71.5"/>
				<line id="XMLID_358_" class="st1" x1="-23" y1="35.4" x2="37.6" y2="70.4"/>
				<line id="XMLID_357_" class="st1" x1="-22.4" y1="34.4" x2="38.2" y2="69.3"/>
				<line id="XMLID_356_" class="st1" x1="-21.7" y1="33.3" x2="38.8" y2="68.3"/>
				<line id="XMLID_355_" class="st1" x1="-21.1" y1="32.2" x2="39.4" y2="67.2"/>
				<line id="XMLID_354_" class="st1" x1="-20.5" y1="31.1" x2="40.1" y2="66.1"/>
				<line id="XMLID_353_" class="st1" x1="-19.9" y1="30.1" x2="40.7" y2="65"/>
				<line id="XMLID_352_" class="st1" x1="-19.3" y1="29" x2="41.3" y2="64"/>
				<line id="XMLID_351_" class="st1" x1="-18.7" y1="27.9" x2="41.9" y2="62.9"/>
				<line id="XMLID_350_" class="st1" x1="-18" y1="26.9" x2="42.5" y2="61.8"/>
				<line id="XMLID_349_" class="st1" x1="-17.4" y1="25.8" x2="43.2" y2="60.8"/>
				<line id="XMLID_348_" class="st1" x1="-16.8" y1="24.7" x2="43.8" y2="59.7"/>
				<line id="XMLID_347_" class="st1" x1="-16.2" y1="23.7" x2="44.4" y2="58.6"/>
				<line id="XMLID_346_" class="st1" x1="-15.6" y1="22.6" x2="45" y2="57.5"/>
				<line id="XMLID_345_" class="st1" x1="-14.9" y1="21.5" x2="45.6" y2="56.5"/>
				<line id="XMLID_344_" class="st1" x1="-14.3" y1="20.4" x2="46.2" y2="55.4"/>
				<line id="XMLID_343_" class="st1" x1="-13.7" y1="19.4" x2="46.9" y2="54.3"/>
				<line id="XMLID_342_" class="st1" x1="-13.1" y1="18.3" x2="47.5" y2="53.3"/>
				<line id="XMLID_341_" class="st1" x1="-12.5" y1="17.2" x2="48.1" y2="52.2"/>
				<line id="XMLID_340_" class="st1" x1="-11.8" y1="16.2" x2="48.7" y2="51.1"/>
				<line id="XMLID_339_" class="st1" x1="-11.2" y1="15.1" x2="49.3" y2="50.1"/>
				<line id="XMLID_338_" class="st1" x1="-10.6" y1="14" x2="50" y2="49"/>
				<line id="XMLID_337_" class="st1" x1="-10" y1="12.9" x2="50.6" y2="47.9"/>
				<line id="XMLID_336_" class="st1" x1="-9.4" y1="11.9" x2="51.2" y2="46.8"/>
				<line id="XMLID_335_" class="st1" x1="-8.8" y1="10.8" x2="51.8" y2="45.8"/>
				<line id="XMLID_334_" class="st1" x1="-8.1" y1="9.7" x2="52.4" y2="44.7"/>
				<line id="XMLID_333_" class="st1" x1="-7.5" y1="8.7" x2="53" y2="43.6"/>
				<line id="XMLID_332_" class="st1" x1="-6.9" y1="7.6" x2="53.7" y2="42.6"/>
				<line id="XMLID_331_" class="st1" x1="-6.3" y1="6.5" x2="54.3" y2="41.5"/>
				<line id="XMLID_330_" class="st1" x1="-5.7" y1="5.4" x2="54.9" y2="40.4"/>
				<line id="XMLID_329_" class="st1" x1="-5" y1="4.4" x2="55.5" y2="39.3"/>
				<line id="XMLID_328_" class="st1" x1="-4.4" y1="3.3" x2="56.1" y2="38.3"/>
				<line id="XMLID_327_" class="st1" x1="-3.8" y1="2.2" x2="56.8" y2="37.2"/>
				<line id="XMLID_326_" class="st1" x1="-3.2" y1="1.2" x2="57.4" y2="36.1"/>
				<line id="XMLID_325_" class="st1" x1="-2.6" y1="0.1" x2="58" y2="35.1"/>
				<line id="XMLID_324_" class="st1" x1="-2" y1="-1" x2="58.6" y2="34"/>
				<line id="XMLID_323_" class="st1" x1="-1.3" y1="-2.1" x2="59.2" y2="32.9"/>
				<line id="XMLID_322_" class="st1" x1="-0.7" y1="-3.1" x2="59.8" y2="31.8"/>
				<line id="XMLID_321_" class="st1" x1="-0.1" y1="-4.2" x2="60.5" y2="30.8"/>
				<line id="XMLID_320_" class="st1" x1="0.5" y1="-5.3" x2="61.1" y2="29.7"/>
				<line id="XMLID_319_" class="st1" x1="1.1" y1="-6.3" x2="61.7" y2="28.6"/>
				<line id="XMLID_318_" class="st1" x1="1.8" y1="-7.4" x2="62.3" y2="27.6"/>
				<line id="XMLID_317_" class="st1" x1="2.4" y1="-8.5" x2="62.9" y2="26.5"/>
				<line id="XMLID_316_" class="st1" x1="3" y1="-9.5" x2="63.6" y2="25.4"/>
				<line id="XMLID_315_" class="st1" x1="3.6" y1="-10.6" x2="64.2" y2="24.3"/>
				<line id="XMLID_314_" class="st1" x1="4.2" y1="-11.7" x2="64.8" y2="23.3"/>
				<line id="XMLID_313_" class="st1" x1="4.8" y1="-12.8" x2="65.4" y2="22.2"/>
				<line id="XMLID_312_" class="st1" x1="5.5" y1="-13.8" x2="66" y2="21.1"/>
				<line id="XMLID_311_" class="st1" x1="6.1" y1="-14.9" x2="66.7" y2="20.1"/>
				<line id="XMLID_310_" class="st1" x1="6.7" y1="-16" x2="67.3" y2="19"/>
				<line id="XMLID_309_" class="st1" x1="7.3" y1="-17" x2="67.9" y2="17.9"/>
				<line id="XMLID_308_" class="st1" x1="7.9" y1="-18.1" x2="68.5" y2="16.9"/>
				<line id="XMLID_307_" class="st1" x1="8.6" y1="-19.2" x2="69.1" y2="15.8"/>
				<line id="XMLID_306_" class="st1" x1="9.2" y1="-20.3" x2="69.7" y2="14.7"/>
				<line id="XMLID_305_" class="st1" x1="9.8" y1="-21.3" x2="70.4" y2="13.6"/>
				<line id="XMLID_304_" class="st1" x1="10.4" y1="-22.4" x2="71" y2="12.6"/>
				<line id="XMLID_303_" class="st1" x1="11" y1="-23.5" x2="71.6" y2="11.5"/>
				<line id="XMLID_302_" class="st1" x1="11.6" y1="-24.5" x2="72.2" y2="10.4"/>
				<line id="XMLID_301_" class="st1" x1="12.3" y1="-25.6" x2="72.8" y2="9.4"/>
				<line id="XMLID_300_" class="st1" x1="12.9" y1="-26.7" x2="73.5" y2="8.3"/>
				<line id="XMLID_299_" class="st1" x1="13.5" y1="-27.8" x2="74.1" y2="7.2"/>
				<line id="XMLID_298_" class="st1" x1="14.1" y1="-28.8" x2="74.7" y2="6.1"/>
				<line id="XMLID_297_" class="st1" x1="14.7" y1="-29.9" x2="75.3" y2="5.1"/>
				<line id="XMLID_296_" class="st1" x1="15.4" y1="-31" x2="75.9" y2="4"/>
			</g>
			<g id="XMLID_5_">
				<line id="XMLID_294_" class="st1" x1="75.9" y1="44" x2="15.4" y2="79"/>
				<line id="XMLID_293_" class="st1" x1="75.3" y1="42.9" x2="14.7" y2="77.9"/>
				<line id="XMLID_292_" class="st1" x1="74.7" y1="41.9" x2="14.1" y2="76.8"/>
				<line id="XMLID_291_" class="st1" x1="74.1" y1="40.8" x2="13.5" y2="75.8"/>
				<line id="XMLID_290_" class="st1" x1="73.5" y1="39.7" x2="12.9" y2="74.7"/>
				<line id="XMLID_289_" class="st1" x1="72.8" y1="38.6" x2="12.3" y2="73.6"/>
				<line id="XMLID_288_" class="st1" x1="72.2" y1="37.6" x2="11.6" y2="72.5"/>
				<line id="XMLID_287_" class="st1" x1="71.6" y1="36.5" x2="11" y2="71.5"/>
				<line id="XMLID_286_" class="st1" x1="71" y1="35.4" x2="10.4" y2="70.4"/>
				<line id="XMLID_285_" class="st1" x1="70.4" y1="34.4" x2="9.8" y2="69.3"/>
				<line id="XMLID_284_" class="st1" x1="69.7" y1="33.3" x2="9.2" y2="68.3"/>
				<line id="XMLID_283_" class="st1" x1="69.1" y1="32.2" x2="8.6" y2="67.2"/>
				<line id="XMLID_282_" class="st1" x1="68.5" y1="31.1" x2="7.9" y2="66.1"/>
				<line id="XMLID_281_" class="st1" x1="67.9" y1="30.1" x2="7.3" y2="65"/>
				<line id="XMLID_280_" class="st1" x1="67.3" y1="29" x2="6.7" y2="64"/>
				<line id="XMLID_279_" class="st1" x1="66.7" y1="27.9" x2="6.1" y2="62.9"/>
				<line id="XMLID_278_" class="st1" x1="66" y1="26.9" x2="5.5" y2="61.8"/>
				<line id="XMLID_277_" class="st1" x1="65.4" y1="25.8" x2="4.8" y2="60.8"/>
				<line id="XMLID_276_" class="st1" x1="64.8" y1="24.7" x2="4.2" y2="59.7"/>
				<line id="XMLID_275_" class="st1" x1="64.2" y1="23.7" x2="3.6" y2="58.6"/>
				<line id="XMLID_274_" class="st1" x1="63.6" y1="22.6" x2="3" y2="57.5"/>
				<line id="XMLID_273_" class="st1" x1="62.9" y1="21.5" x2="2.4" y2="56.5"/>
				<line id="XMLID_272_" class="st1" x1="62.3" y1="20.4" x2="1.8" y2="55.4"/>
				<line id="XMLID_271_" class="st1" x1="61.7" y1="19.4" x2="1.1" y2="54.3"/>
				<line id="XMLID_270_" class="st1" x1="61.1" y1="18.3" x2="0.5" y2="53.3"/>
				<line id="XMLID_269_" class="st1" x1="60.5" y1="17.2" x2="-0.1" y2="52.2"/>
				<line id="XMLID_268_" class="st1" x1="59.8" y1="16.2" x2="-0.7" y2="51.1"/>
				<line id="XMLID_267_" class="st1" x1="59.2" y1="15.1" x2="-1.3" y2="50.1"/>
				<line id="XMLID_266_" class="st1" x1="58.6" y1="14" x2="-2" y2="49"/>
				<line id="XMLID_265_" class="st1" x1="58" y1="12.9" x2="-2.6" y2="47.9"/>
				<line id="XMLID_264_" class="st1" x1="57.4" y1="11.9" x2="-3.2" y2="46.8"/>
				<line id="XMLID_263_" class="st1" x1="56.8" y1="10.8" x2="-3.8" y2="45.8"/>
				<line id="XMLID_262_" class="st1" x1="56.1" y1="9.7" x2="-4.4" y2="44.7"/>
				<line id="XMLID_261_" class="st1" x1="55.5" y1="8.7" x2="-5" y2="43.6"/>
				<line id="XMLID_260_" class="st1" x1="54.9" y1="7.6" x2="-5.7" y2="42.6"/>
				<line id="XMLID_259_" class="st1" x1="54.3" y1="6.5" x2="-6.3" y2="41.5"/>
				<line id="XMLID_258_" class="st1" x1="53.7" y1="5.4" x2="-6.9" y2="40.4"/>
				<line id="XMLID_257_" class="st1" x1="53" y1="4.4" x2="-7.5" y2="39.3"/>
				<line id="XMLID_256_" class="st1" x1="52.4" y1="3.3" x2="-8.1" y2="38.3"/>
				<line id="XMLID_255_" class="st1" x1="51.8" y1="2.2" x2="-8.8" y2="37.2"/>
				<line id="XMLID_254_" class="st1" x1="51.2" y1="1.2" x2="-9.4" y2="36.1"/>
				<line id="XMLID_253_" class="st1" x1="50.6" y1="0.1" x2="-10" y2="35.1"/>
				<line id="XMLID_252_" class="st1" x1="50" y1="-1" x2="-10.6" y2="34"/>
				<line id="XMLID_251_" class="st1" x1="49.3" y1="-2.1" x2="-11.2" y2="32.9"/>
				<line id="XMLID_250_" class="st1" x1="48.7" y1="-3.1" x2="-11.8" y2="31.8"/>
				<line id="XMLID_249_" class="st1" x1="48.1" y1="-4.2" x2="-12.5" y2="30.8"/>
				<line id="XMLID_248_" class="st1" x1="47.5" y1="-5.3" x2="-13.1" y2="29.7"/>
				<line id="XMLID_247_" class="st1" x1="46.9" y1="-6.3" x2="-13.7" y2="28.6"/>
				<line id="XMLID_246_" class="st1" x1="46.2" y1="-7.4" x2="-14.3" y2="27.6"/>
				<line id="XMLID_245_" class="st1" x1="45.6" y1="-8.5" x2="-14.9" y2="26.5"/>
				<line id="XMLID_244_" class="st1" x1="45" y1="-9.5" x2="-15.6" y2="25.4"/>
				<line id="XMLID_243_" class="st1" x1="44.4" y1="-10.6" x2="-16.2" y2="24.3"/>
				<line id="XMLID_242_" class="st1" x1="43.8" y1="-11.7" x2="-16.8" y2="23.3"/>
				<line id="XMLID_241_" class="st1" x1="43.2" y1="-12.8" x2="-17.4" y2="22.2"/>
				<line id="XMLID_240_" class="st1" x1="42.5" y1="-13.8" x2="-18" y2="21.1"/>
				<line id="XMLID_239_" class="st1" x1="41.9" y1="-14.9" x2="-18.7" y2="20.1"/>
				<line id="XMLID_238_" class="st1" x1="41.3" y1="-16" x2="-19.3" y2="19"/>
				<line id="XMLID_237_" class="st1" x1="40.7" y1="-17" x2="-19.9" y2="17.9"/>
				<line id="XMLID_236_" class="st1" x1="40.1" y1="-18.1" x2="-20.5" y2="16.9"/>
				<line id="XMLID_235_" class="st1" x1="39.4" y1="-19.2" x2="-21.1" y2="15.8"/>
				<line id="XMLID_234_" class="st1" x1="38.8" y1="-20.3" x2="-21.7" y2="14.7"/>
				<line id="XMLID_233_" class="st1" x1="38.2" y1="-21.3" x2="-22.4" y2="13.6"/>
				<line id="XMLID_232_" class="st1" x1="37.6" y1="-22.4" x2="-23" y2="12.6"/>
				<line id="XMLID_13_" class="st1" x1="37" y1="-23.5" x2="-23.6" y2="11.5"/>
				<line id="XMLID_12_" class="st1" x1="36.4" y1="-24.5" x2="-24.2" y2="10.4"/>
				<line id="XMLID_11_" class="st1" x1="35.7" y1="-25.6" x2="-24.8" y2="9.4"/>
				<line id="XMLID_10_" class="st1" x1="35.1" y1="-26.7" x2="-25.5" y2="8.3"/>
				<line id="XMLID_9_" class="st1" x1="34.5" y1="-27.8" x2="-26.1" y2="7.2"/>
				<line id="XMLID_8_" class="st1" x1="33.9" y1="-28.8" x2="-26.7" y2="6.1"/>
				<line id="XMLID_7_" class="st1" x1="33.3" y1="-29.9" x2="-27.3" y2="5.1"/>
				<line id="XMLID_6_" class="st1" x1="32.6" y1="-31" x2="-27.9" y2="4"/>
			</g>
		</g>
	</g>
</g>
<g id="Layer_3">
	<g id="XMLID_1_">
		<g id="XMLID_33_">
			<polyline id="XMLID_45_" class="st2" points="46.3,45.2 46.3,46.2 45.3,46.2 			"/>
			<line id="XMLID_44_" class="st3" x1="43.4" y1="46.2" x2="36.9" y2="46.2"/>
			<line id="XMLID_43_" class="st4" x1="36" y1="46.2" x2="3.7" y2="46.2"/>
			<polyline id="XMLID_42_" class="st2" points="2.7,46.2 1.7,46.2 1.7,45.2 			"/>
			<line id="XMLID_41_" class="st5" x1="1.7" y1="43.3" x2="1.7" y2="36.9"/>
			<line id="XMLID_40_" class="st6" x1="1.7" y1="35.9" x2="1.7" y2="3.7"/>
			<polyline id="XMLID_39_" class="st2" points="1.7,2.8 1.7,1.8 2.7,1.8 			"/>
			<line id="XMLID_38_" class="st3" x1="4.6" y1="1.8" x2="11.1" y2="1.8"/>
			<line id="XMLID_37_" class="st4" x1="12" y1="1.8" x2="44.3" y2="1.8"/>
			<polyline id="XMLID_36_" class="st2" points="45.3,1.8 46.3,1.8 46.3,2.8 			"/>
			<line id="XMLID_35_" class="st5" x1="46.3" y1="4.6" x2="46.3" y2="11"/>
			<line id="XMLID_34_" class="st6" x1="46.3" y1="12" x2="46.3" y2="44.2"/>
		</g>
	</g>
</g>
<g id="Layer_4">
	<path id="XMLID_21_" class="st7" d="M39,13.4c-0.1,2.2-0.7,5.1-2.8,8.1c-1.1,1.5-1,3.5,0,5.1c1.2,1.8,2.6,4.7,2.8,8.5
		c0.1,2.5-1.9,4.6-4.5,4.6c-2.5,0-5.7-0.6-8.7-2.8c-1.5-1.1-3.5-1.1-5-0.1c-2,1.3-4.9,2.8-8.1,2.9c-2.6,0.1-4.7-2-4.6-4.6
		c0.1-2.3,0.8-5.3,3-8.4c1.1-1.5,1.1-3.5,0.1-5.1c-1.3-1.9-2.8-4.8-3-8c-0.2-2.7,1.9-4.9,4.6-4.8c2.3,0.1,5.3,0.7,8.3,2.7
		c1.5,1.1,3.6,1.1,5.1,0c1.8-1.3,4.7-2.6,8.4-2.7C37.1,8.7,39.1,10.8,39,13.4z"/>
	<path id="XMLID_694_" class="st8" d="M12.6,40.6c-1.4,0-2.8-0.6-3.9-1.6c-1.1-1.1-1.6-2.6-1.6-4.1c0.1-3.1,1.2-6.2,3.2-9
		c0.8-1.2,0.9-2.7,0.1-3.9c-1.3-1.9-2.9-5-3.2-8.4c-0.1-1.5,0.4-3.1,1.5-4.2c1.1-1.1,2.6-1.7,4.1-1.7c3.1,0.1,6.2,1.1,8.8,2.9
		c1.2,0.8,2.8,0.8,3.9,0c1.8-1.3,4.9-2.8,8.9-2.9c1.5,0,2.9,0.5,4,1.6c1,1.1,1.6,2.6,1.5,4.1c-0.1,3.1-1.1,6-3,8.6
		c-0.8,1.2-0.8,2.7,0,3.9c1.2,1.8,2.8,4.9,2.9,9c0.1,1.5-0.5,2.9-1.5,4c-1,1.1-2.4,1.7-3.9,1.7c-3.4,0-6.6-1-9.3-3
		c-1.2-0.8-2.7-0.9-3.9-0.1c-2,1.3-5.2,3-8.6,3.1C12.7,40.6,12.6,40.6,12.6,40.6z M12.6,9.7c-0.9,0-1.8,0.4-2.5,1.1
		c-0.7,0.7-1,1.7-0.9,2.7c0.2,3,1.7,5.7,2.9,7.5c1.3,1.9,1.2,4.4-0.1,6.2c-1.8,2.4-2.7,5.1-2.8,7.9c0,1,0.3,1.9,1,2.6
		c0.7,0.7,1.6,1.1,2.6,1c3-0.1,5.7-1.6,7.6-2.8c1.9-1.2,4.4-1.2,6.2,0.1c2.3,1.7,5.1,2.6,8.1,2.6c0,0,0,0,0,0c0.9,0,1.8-0.4,2.5-1.1
		c0.7-0.7,1-1.6,1-2.5c-0.2-3.7-1.5-6.3-2.6-7.9c-1.3-1.9-1.3-4.3,0-6.2c1.6-2.3,2.5-4.9,2.6-7.6l0,0c0-1-0.3-1.9-1-2.6
		c-0.7-0.7-1.6-1-2.5-1c-3.6,0.1-6.2,1.4-7.8,2.5c-1.8,1.3-4.3,1.3-6.2,0c-2.3-1.6-4.9-2.5-7.7-2.5C12.7,9.7,12.7,9.7,12.6,9.7z"/>
	<path id="XMLID_20_" class="st9" d="M23.6,3c0,0,7.4,3.7,7.4,13.7c0,0,8.1-0.9,13.9,7.3c0,0-4.3,8.2-13.9,7.7
		c0,0-0.3,10.6-7.6,13.5c0,0-7.1-3.6-7.1-13.8c0,0-10.1-0.1-13.8-7.3c0,0,4-7.5,13.8-7.4C16.2,16.7,15.3,8.3,23.6,3z"/>
	<path id="XMLID_19_" class="st10" d="M23.3,46.3l-0.4-0.2c-0.1,0-2-1-3.9-3.3c-1.6-2-3.5-5.4-3.8-10.4c-1-0.1-2.8-0.3-4.8-0.9
		c-4.2-1.3-7.2-3.7-8.9-6.9l-0.2-0.5l0.2-0.5c0-0.1,1.1-2.1,3.4-4c2-1.7,5.4-3.7,10.2-3.9c0-0.9,0.1-2.4,0.6-4.2
		c0.8-2.7,2.7-6.5,7.2-9.4l0.5-0.3L24,2.1c0.1,0,2,1,4,3.3c1.7,2,3.6,5.3,3.9,10.3c0.9,0,2.4,0.2,4.1,0.7c2.7,0.8,6.5,2.7,9.7,7.1
		L46,24l-0.3,0.5c0,0.1-1.2,2.2-3.6,4.3c-2.1,1.8-5.5,3.9-10.3,3.9c-0.1,1.1-0.4,2.9-1,5c-1.4,4.2-3.8,7.2-7.1,8.5L23.3,46.3z
		 M3.6,24.3c3.6,6.1,12.4,6.2,12.5,6.2l0.9-0.1v1c0,4,1.2,7.3,3.4,10c1.2,1.4,2.4,2.3,3,2.7c6.2-2.9,6.5-12.3,6.5-12.4l0-1l1,0.1
		c3.7,0.2,7-0.9,9.8-3.4c1.5-1.3,2.4-2.6,2.9-3.3c-2.2-2.9-4.9-4.9-8.1-5.8c-2.5-0.8-4.5-0.6-4.5-0.6L30,17.8l0-1.1
		c0-3.9-1.1-7.2-3.4-9.9c-1.1-1.4-2.3-2.2-2.9-2.6c-7.1,4.9-6.4,12.4-6.4,12.4l0.1,1.3L16.2,18c-0.1,0-0.1,0-0.2,0
		C8.4,18,4.6,22.8,3.6,24.3z"/>
	<circle id="XMLID_18_" class="st11" cx="23.5" cy="23.9" r="5.4"/>
	<path id="XMLID_15_" class="st12" d="M23.5,30.3c-1.6,0-3.3-0.6-4.5-1.9c-1.2-1.2-1.9-2.8-1.9-4.5c0-1.7,0.7-3.3,1.9-4.5
		c2.5-2.5,6.5-2.5,9,0v0c2.5,2.5,2.5,6.5,0,9C26.8,29.6,25.1,30.3,23.5,30.3z M23.5,19.5c-1.2,0-2.3,0.5-3.1,1.3
		c-0.8,0.8-1.3,1.9-1.3,3.1c0,1.2,0.5,2.3,1.3,3.1c0.8,0.8,1.9,1.3,3.1,1.3c1.2,0,2.3-0.5,3.1-1.3c1.7-1.7,1.7-4.5,0-6.2
		C25.8,20,24.7,19.5,23.5,19.5z"/>
</g>
<g id="Layer_5">
</g>
</svg>
