<?xml version="1.0" encoding="utf-8"?>
<!-- Generator: Adobe Illustrator 19.0.0, SVG Export Plug-In . SVG Version: 6.00 Build 0)  -->
<svg version="1.1" id="Layer_1" xmlns="http://www.w3.org/2000/svg" xmlns:xlink="http://www.w3.org/1999/xlink" x="0px" y="0px"
	 viewBox="0 0 184.2 42.5" style="enable-background:new 0 0 184.2 42.5;" xml:space="preserve">
<style type="text/css">
	.st0{clip-path:url(#XMLID_3_);}
	.st1{fill:none;stroke:#754C29;stroke-width:0.25;stroke-miterlimit:10;}
	.st2{clip-path:url(#XMLID_6_);}
</style>
<g id="XMLID_4_">
	<g id="XMLID_203_">
		<defs>
			<path id="XMLID_204_" d="M184.2,20.2v22.4h-82.9l9.2-4.1l1.4-10.4c0,0,1.1-0.7,1.6-1.7c4.7-9.1,11.8-19.9,14.3-21.7
				C127.8,4.6,176.8,12.1,184.2,20.2z"/>
		</defs>
		<clipPath id="XMLID_3_">
			<use xlink:href="#XMLID_204_"  style="overflow:visible;"/>
		</clipPath>
		<g id="XMLID_205_" class="st0">
			<g id="XMLID_5_">
				<path id="XMLID_38_" class="st1" d="M215.2,35.4c-20.5,0-20.5-20-41-20c-20.5,0-20.5,20-41,20c-20.5,0-20.5-20-41-20
					c-20.5,0-20.5,20-41,20c-20.5,0-20.5-20-41-20"/>
			</g>
			<g id="XMLID_24_">
				<path id="XMLID_215_" class="st1" d="M215.2,35.9c-20.5,0-20.5-19.1-41-19.1c-20.5,0-20.5,19.1-41,19.1
					c-20.5,0-20.5-19.1-41-19.1c-20.5,0-20.5,19.1-41,19.1c-20.5,0-20.5-19.1-41-19.1"/>
			</g>
			<g id="XMLID_23_">
				<path id="XMLID_212_" class="st1" d="M215.2,36.5c-20.5,0-20.5-18.2-41-18.2c-20.5,0-20.5,18.2-41,18.2
					c-20.5,0-20.5-18.2-41-18.2c-20.5,0-20.5,18.2-41,18.2c-20.5,0-20.5-18.2-41-18.2"/>
			</g>
			<g id="XMLID_22_">
				<path id="XMLID_209_" class="st1" d="M215.2,37c-20.5,0-20.5-17.3-41-17.3c-20.5,0-20.5,17.3-41,17.3c-20.5,0-20.5-17.3-41-17.3
					c-20.5,0-20.5,17.3-41,17.3c-20.5,0-20.5-17.3-41-17.3"/>
			</g>
			<g id="XMLID_21_">
				<path id="XMLID_64_" class="st1" d="M215.2,37.5c-20.5,0-20.5-16.4-41-16.4c-20.5,0-20.5,16.4-41,16.4
					c-20.5,0-20.5-16.4-41-16.4c-20.5,0-20.5,16.4-41,16.4c-20.5,0-20.5-16.4-41-16.4"/>
			</g>
			<g id="XMLID_20_">
				<path id="XMLID_62_" class="st1" d="M215.2,38c-20.5,0-20.5-15.5-41-15.5c-20.5,0-20.5,15.5-41,15.5c-20.5,0-20.5-15.5-41-15.5
					c-20.5,0-20.5,15.5-41,15.5c-20.5,0-20.5-15.5-41-15.5"/>
			</g>
			<g id="XMLID_19_">
				<path id="XMLID_60_" class="st1" d="M215.2,38.6c-20.5,0-20.5-14.6-41-14.6c-20.5,0-20.5,14.6-41,14.6
					c-20.5,0-20.5-14.6-41-14.6c-20.5,0-20.5,14.6-41,14.6c-20.5,0-20.5-14.6-41-14.6"/>
			</g>
			<g id="XMLID_18_">
				<path id="XMLID_58_" class="st1" d="M215.2,39.1c-20.5,0-20.5-13.7-41-13.7c-20.5,0-20.5,13.7-41,13.7
					c-20.5,0-20.5-13.7-41-13.7c-20.5,0-20.5,13.7-41,13.7c-20.5,0-20.5-13.7-41-13.7"/>
			</g>
			<g id="XMLID_17_">
				<path id="XMLID_56_" class="st1" d="M215.2,39.6c-20.5,0-20.5-12.8-41-12.8c-20.5,0-20.5,12.8-41,12.8
					c-20.5,0-20.5-12.8-41-12.8c-20.5,0-20.5,12.8-41,12.8c-20.5,0-20.5-12.8-41-12.8"/>
			</g>
			<g id="XMLID_16_">
				<path id="XMLID_54_" class="st1" d="M215.2,40.1c-20.5,0-20.5-11.9-41-11.9c-20.5,0-20.5,11.9-41,11.9
					c-20.5,0-20.5-11.9-41-11.9c-20.5,0-20.5,11.9-41,11.9c-20.5,0-20.5-11.9-41-11.9"/>
			</g>
			<g id="XMLID_15_">
				<path id="XMLID_52_" class="st1" d="M215.2,40.7c-20.5,0-20.5-11-41-11c-20.5,0-20.5,11-41,11c-20.5,0-20.5-11-41-11
					c-20.5,0-20.5,11-41,11c-20.5,0-20.5-11-41-11"/>
			</g>
			<g id="XMLID_14_">
				<path id="XMLID_50_" class="st1" d="M215.2,41.2c-20.5,0-20.5-10.2-41-10.2c-20.5,0-20.5,10.2-41,10.2
					c-20.5,0-20.5-10.2-41-10.2c-20.5,0-20.5,10.2-41,10.2c-20.5,0-20.5-10.2-41-10.2"/>
			</g>
			<g id="XMLID_13_">
				<path id="XMLID_48_" class="st1" d="M215.2,41.7c-20.5,0-20.5-9.3-41-9.3c-20.5,0-20.5,9.3-41,9.3c-20.5,0-20.5-9.3-41-9.3
					c-20.5,0-20.5,9.3-41,9.3c-20.5,0-20.5-9.3-41-9.3"/>
			</g>
			<g id="XMLID_12_">
				<path id="XMLID_46_" class="st1" d="M215.2,42.2c-20.5,0-20.5-8.4-41-8.4c-20.5,0-20.5,8.4-41,8.4c-20.5,0-20.5-8.4-41-8.4
					c-20.5,0-20.5,8.4-41,8.4c-20.5,0-20.5-8.4-41-8.4"/>
			</g>
			<g id="XMLID_11_">
				<path id="XMLID_44_" class="st1" d="M215.2,42.7c-20.5,0-20.5-7.5-41-7.5c-20.5,0-20.5,7.5-41,7.5c-20.5,0-20.5-7.5-41-7.5
					c-20.5,0-20.5,7.5-41,7.5c-20.5,0-20.5-7.5-41-7.5"/>
			</g>
			<g id="XMLID_9_">
				<path id="XMLID_42_" class="st1" d="M215.2,43.3c-20.5,0-20.5-6.6-41-6.6c-20.5,0-20.5,6.6-41,6.6c-20.5,0-20.5-6.6-41-6.6
					c-20.5,0-20.5,6.6-41,6.6c-20.5,0-20.5-6.6-41-6.6"/>
			</g>
			<g id="XMLID_1_">
				<path id="XMLID_40_" class="st1" d="M215.2,43.8c-20.5,0-20.5-5.7-41-5.7c-20.5,0-20.5,5.7-41,5.7c-20.5,0-20.5-5.7-41-5.7
					c-20.5,0-20.5,5.7-41,5.7c-20.5,0-20.5-5.7-41-5.7"/>
			</g>
		</g>
	</g>
	<g id="XMLID_8_">
		<defs>
			<path id="XMLID_10_" d="M114.2,25.7l-2.8,2.6l0.6,0.4l-1.8,12.4L2,40.3l-0.3-2.8c-2-20.9,14.9-38.8,35.9-38l18.1,0.7l59.4,16.4
				L114.2,25.7z"/>
		</defs>
		<clipPath id="XMLID_6_">
			<use xlink:href="#XMLID_10_"  style="overflow:visible;"/>
		</clipPath>
		<g id="XMLID_27_" class="st2">
			<polyline id="XMLID_202_" class="st1" points="2.9,14.2 24.2,14.2 24.1,4.3 31.8,4.3 31.8,4.7 			"/>
			<polyline id="XMLID_201_" class="st1" points="50.1,5.1 50.1,4.3 57.9,4.3 			"/>
			<polyline id="XMLID_200_" class="st1" points="3,14.7 24.7,14.9 24.7,5.6 32.7,5.6 32.9,5.8 			"/>
			<polyline id="XMLID_199_" class="st1" points="58,10.5 58,5.5 49.8,5.5 49.7,5.7 			"/>
			<polyline id="XMLID_198_" class="st1" points="36.4,6.8 36.2,6.7 26,6.7 26,15.9 3.1,15.7 			"/>
			<polyline id="XMLID_197_" class="st1" points="46.2,6.9 46.3,6.7 56.8,6.7 56.8,11.4 			"/>
			<polyline id="XMLID_196_" class="st1" points="3.2,17 28.9,17.1 28.9,7.9 54.7,7.9 54.7,12.7 			"/>
			<polyline id="XMLID_195_" class="st1" points="3.2,18.4 35.3,18.5 35.3,9 49.5,9 49.5,18.4 52.2,18.4 			"/>
			<line id="XMLID_194_" class="st1" x1="111.3" y1="32.9" x2="136.5" y2="32.9"/>
			<line id="XMLID_193_" class="st1" x1="86.9" y1="23.9" x2="99.2" y2="23.9"/>
			<path id="XMLID_192_" class="st1" d="M86.5,28.7"/>
			<polyline id="XMLID_191_" class="st1" points="86.4,29.8 73.8,29.8 74.3,19.5 70.1,19.5 69.7,24.4 56.6,24.4 56.9,14.5 
				52.3,14.5 52.1,20.1 43,19.9 2.8,19.9 			"/>
			<polyline id="XMLID_190_" class="st1" points="3.1,18.9 41.7,19 41.7,10.2 43,10.2 43,18.9 51.9,18.9 			"/>
			<line id="XMLID_189_" class="st1" x1="111.5" y1="31.8" x2="136.5" y2="31.8"/>
			<polyline id="XMLID_188_" class="st1" points="88.9,22.9 101.5,22.9 101.4,24.9 			"/>
			<polyline id="XMLID_187_" class="st1" points="70.8,18.4 79.8,18.4 79.2,28.7 86.5,28.7 			"/>
			<polyline id="XMLID_186_" class="st1" points="53.7,13.3 66.2,13.3 66,23.2 70,23.2 			"/>
			<line id="XMLID_185_" class="st1" x1="110.8" y1="36.9" x2="136.4" y2="36.9"/>
			<polyline id="XMLID_184_" class="st1" points="2.3,36.5 90,36.2 90.9,25.2 103.2,25.2 			"/>
			<line id="XMLID_183_" class="st1" x1="110.8" y1="38.1" x2="136.2" y2="38.1"/>
			<polyline id="XMLID_182_" class="st1" points="2.5,37.7 94.1,37.4 95,26.3 107.2,26.3 			"/>
			<polyline id="XMLID_181_" class="st1" points="2.6,38.9 98.1,38.7 99,27.6 111.6,27.6 			"/>
			<polyline id="XMLID_180_" class="st1" points="2.4,40.1 102.4,39.9 103.2,28.6 110.7,28.6 109.6,39.7 136.3,39.7 			"/>
			<polyline id="XMLID_179_" class="st1" points="2.5,40.9 105.7,40.9 107,29.8 108.4,29.8 107.4,40.9 136.3,40.9 			"/>
			<line id="XMLID_178_" class="st1" x1="3.1" y1="13" x2="23.9" y2="13"/>
			<polyline id="XMLID_177_" class="st1" points="24.7,3.3 24.9,3.2 33.3,3.2 33.3,5.9 			"/>
			<polyline id="XMLID_176_" class="st1" points="48.6,6.2 48.6,3.2 56.9,3.2 57.1,3.4 			"/>
			<line id="XMLID_175_" class="st1" x1="3.1" y1="11.7" x2="23.9" y2="11.7"/>
			<polyline id="XMLID_174_" class="st1" points="26.5,2.2 26.6,2 38,2 38,7 			"/>
			<polyline id="XMLID_173_" class="st1" points="43.3,7.2 43.3,2 54.7,2 54.9,2.2 			"/>
			<polyline id="XMLID_172_" class="st1" points="30.2,1 30.4,0.8 50.2,0.8 50.3,1 			"/>
			<polyline id="XMLID_171_" class="st1" points="55.3,12.4 55.4,12.2 82.9,12.2 82.8,14.7 			"/>
			<polyline id="XMLID_170_" class="st1" points="94.1,12.3 94.1,12.2 96.2,12.2 96.2,12.3 			"/>
			<polyline id="XMLID_169_" class="st1" points="71.2,17.6 71.5,17.3 85.2,17.3 84.8,27.5 86.5,27.5 			"/>
			<polyline id="XMLID_168_" class="st1" points="91.4,21.9 91.7,21.6 104.3,21.6 103.8,25.5 			"/>
			<polyline id="XMLID_167_" class="st1" points="93.8,20.6 94.3,20.4 106.7,20.4 106.1,26.1 			"/>
			<polyline id="XMLID_166_" class="st1" points="97,19.4 97.2,19.2 109.3,19.2 108.6,26.8 			"/>
			<polyline id="XMLID_165_" class="st1" points="99,18.2 99.6,18.1 111.9,18.1 111.1,27.4 			"/>
			<polyline id="XMLID_164_" class="st1" points="102.2,17.1 102.4,16.9 114.4,16.9 113.3,27.1 136.1,27.1 			"/>
			<polyline id="XMLID_163_" class="st1" points="104.7,16 104.9,15.8 110.9,15.8 111.1,15.9 			"/>
			<line id="XMLID_162_" class="st1" x1="46.7" y1="0.3" x2="34.3" y2="0.3"/>
			<line id="XMLID_161_" class="st1" x1="51.4" y1="1.2" x2="29.3" y2="1.2"/>
			<line id="XMLID_160_" class="st1" x1="52.7" y1="1.5" x2="28.4" y2="1.5"/>
			<polyline id="XMLID_159_" class="st1" points="55.4,2.4 46,2.4 46,7 			"/>
			<polyline id="XMLID_158_" class="st1" points="26,2.4 35.3,2.4 35.3,6.5 			"/>
			<polyline id="XMLID_157_" class="st1" points="25.4,2.8 34.3,2.8 34.3,6.3 			"/>
			<polyline id="XMLID_156_" class="st1" points="56.1,2.8 47.6,2.8 47.6,6.6 			"/>
			<polyline id="XMLID_155_" class="st1" points="24.5,3.6 32.5,3.6 32.5,5.4 			"/>
			<polyline id="XMLID_154_" class="st1" points="24.3,3.9 32.1,3.9 32.1,5.1 			"/>
			<polyline id="XMLID_153_" class="st1" points="57.3,3.6 49.4,3.6 49.4,5.8 			"/>
			<polyline id="XMLID_152_" class="st1" points="57.6,4 49.8,4 49.8,5.3 			"/>
			<line id="XMLID_151_" class="st1" x1="58" y1="4.7" x2="50.3" y2="4.7"/>
			<line id="XMLID_150_" class="st1" x1="58" y1="5.1" x2="50.3" y2="5.1"/>
			<polyline id="XMLID_149_" class="st1" points="49.2,5.9 57.6,5.9 57.6,10.7 			"/>
			<polyline id="XMLID_148_" class="st1" points="48.4,6.3 57.3,6.3 57.3,11 			"/>
			<polyline id="XMLID_147_" class="st1" points="44.9,7.1 56,7.1 56,11.9 			"/>
			<polyline id="XMLID_146_" class="st1" points="3.1,16.7 27.8,16.7 27.8,7.5 55.1,7.5 55.1,12.2 			"/>
			<polyline id="XMLID_145_" class="st1" points="3.1,17.8 30.5,17.8 30.5,8.3 52.6,8.3 52.6,14 			"/>
			<polyline id="XMLID_144_" class="st1" points="3.1,18.2 32.7,18.2 32.7,8.7 50.4,8.7 50.4,18 51.9,18 			"/>
			<polyline id="XMLID_143_" class="st1" points="37.6,7.1 26.9,7.1 26.9,16.4 3,16.4 			"/>
			<polyline id="XMLID_142_" class="st1" points="34,6.3 25.4,6.3 25.4,15.4 3.1,15.4 			"/>
			<polyline id="XMLID_141_" class="st1" points="3,15.1 25,15.1 25,6.1 33.1,6.1 			"/>
			<polyline id="XMLID_140_" class="st1" points="31.9,5.2 24.4,5.2 24.4,14.6 11.8,14.5 			"/>
			<line id="XMLID_139_" class="st1" x1="31.5" y1="4.7" x2="24.4" y2="4.7"/>
			<polyline id="XMLID_138_" class="st1" points="49.1,18.5 45.5,18.5 45.5,9.4 38.1,9.4 38.1,18.5 			"/>
			<polyline id="XMLID_137_" class="st1" points="43.7,18.5 43.7,9.8 41.1,9.8 41.1,18.6 			"/>
			<polyline id="XMLID_136_" class="st1" points="2.8,24.8 52.9,24.8 53.4,14.9 54.4,14.9 54,24.8 69.5,24.8 			"/>
			<polyline id="XMLID_135_" class="st1" points="52.8,14.2 59.2,14.2 58.9,24 69.4,24 			"/>
			<polyline id="XMLID_134_" class="st1" points="53.3,13.8 61.9,13.8 61.7,23.7 69.4,23.7 			"/>
			<polyline id="XMLID_133_" class="st1" points="54.3,13 68.9,13 68.6,22.8 69.5,22.8 			"/>
			<polyline id="XMLID_132_" class="st1" points="55,12.7 71,12.7 70.7,18.2 			"/>
			<polyline id="XMLID_131_" class="st1" points="56.2,11.8 83.3,11.8 83.3,14.5 			"/>
			<polyline id="XMLID_130_" class="st1" points="57,11.4 83.5,11.4 83.5,14.5 			"/>
			<polyline id="XMLID_129_" class="st1" points="57.5,11 83.7,11 83.7,14.5 			"/>
			<polyline id="XMLID_128_" class="st1" points="58.1,10.7 66.4,10.7 66.4,10.8 			"/>
			<polyline id="XMLID_127_" class="st1" points="68.9,10.7 83.9,10.7 83.9,14.4 			"/>
			<polyline id="XMLID_126_" class="st1" points="58.4,10.2 67,10.2 67,10.8 			"/>
			<polyline id="XMLID_125_" class="st1" points="72.1,10.2 84.2,10.2 84.2,14.4 			"/>
			<polyline id="XMLID_124_" class="st1" points="59,9.8 67.6,9.8 67.6,10.7 			"/>
			<polyline id="XMLID_123_" class="st1" points="75.7,9.7 84.4,9.7 84.4,14.3 			"/>
			<polyline id="XMLID_122_" class="st1" points="59.5,9.4 68,9.5 68,10.7 			"/>
			<line id="XMLID_121_" class="st1" x1="79.7" y1="9.2" x2="84.4" y2="9.2"/>
			<polyline id="XMLID_120_" class="st1" points="59.9,9.1 68.6,9.1 68.6,10.7 			"/>
			<polyline id="XMLID_119_" class="st1" points="60.6,8.7 69.3,8.7 69.3,10.4 			"/>
			<polyline id="XMLID_118_" class="st1" points="61.3,8.3 69.8,8.3 69.8,10.4 			"/>
			<polyline id="XMLID_117_" class="st1" points="61.8,7.9 70.5,7.9 70.5,10.4 			"/>
			<polyline id="XMLID_116_" class="st1" points="62.5,7.5 71.1,7.5 71.1,10.3 			"/>
			<polyline id="XMLID_115_" class="st1" points="63.1,7.1 71.6,7.1 71.6,10.3 			"/>
			<polyline id="XMLID_114_" class="st1" points="63.7,6.7 72.2,6.7 72.2,10 			"/>
			<line id="XMLID_113_" class="st1" x1="64.4" y1="6.3" x2="71.7" y2="6.3"/>
			<line id="XMLID_112_" class="st1" x1="64.9" y1="5.9" x2="69.9" y2="5.9"/>
			<line id="XMLID_111_" class="st1" x1="65.5" y1="5.5" x2="68.5" y2="5.5"/>
			<line id="XMLID_110_" class="st1" x1="66.1" y1="5.2" x2="67.4" y2="5.2"/>
			<polyline id="XMLID_109_" class="st1" points="74.6,12.8 74.6,12.6 82.5,12.6 82.5,14.6 			"/>
			<polyline id="XMLID_108_" class="st1" points="74.6,13 82.3,13 82.3,14.7 			"/>
			<polyline id="XMLID_107_" class="st1" points="74.2,13.3 82,13.3 82,14.8 			"/>
			<polyline id="XMLID_106_" class="st1" points="74,13.8 81.7,13.8 81.7,14.9 			"/>
			<polyline id="XMLID_105_" class="st1" points="73.7,14.1 81.5,14.1 81.5,15 			"/>
			<polyline id="XMLID_104_" class="st1" points="73.4,14.5 81.2,14.5 81.2,15 			"/>
			<polyline id="XMLID_103_" class="st1" points="73.2,14.9 81,14.9 81,15.1 			"/>
			<polyline id="XMLID_102_" class="st1" points="72.9,15.3 94.8,15.3 94.5,20.3 			"/>
			<polyline id="XMLID_101_" class="st1" points="72.7,15.7 92.9,15.7 92.5,21.2 			"/>
			<polyline id="XMLID_100_" class="st1" points="72.4,16.1 91,16.1 90.6,22.2 			"/>
			<polyline id="XMLID_99_" class="st1" points="72.1,16.5 89.1,16.5 88.7,22.9 			"/>
			<polyline id="XMLID_98_" class="st1" points="71.8,16.9 87.2,16.9 86.9,23.6 			"/>
			<polyline id="XMLID_97_" class="st1" points="71.3,17.7 83.6,17.7 83.1,27.8 86.4,27.8 			"/>
			<polyline id="XMLID_96_" class="st1" points="71,18 81.5,18 81,28.3 86.3,28.3 			"/>
			<polyline id="XMLID_95_" class="st1" points="70.4,18.8 77.4,18.8 76.9,29.2 86.3,29.2 			"/>
			<polyline id="XMLID_94_" class="st1" points="70.1,19.2 75.9,19.2 75.7,29.5 86.3,29.5 			"/>
			<polyline id="XMLID_93_" class="st1" points="82.2,14.9 96.4,14.9 96,19.8 			"/>
			<polyline id="XMLID_92_" class="st1" points="83.8,14.6 98.4,14.6 98,18.9 			"/>
			<polyline id="XMLID_91_" class="st1" points="85.8,14.1 100.2,14.2 99.9,17.9 			"/>
			<polyline id="XMLID_90_" class="st1" points="87.6,13.7 101.7,13.7 101.5,17.4 			"/>
			<line id="XMLID_89_" class="st1" x1="89.3" y1="13.3" x2="100.4" y2="13.3"/>
			<line id="XMLID_88_" class="st1" x1="91.2" y1="13" x2="98.6" y2="13"/>
			<line id="XMLID_87_" class="st1" x1="93" y1="12.6" x2="97.3" y2="12.6"/>
			<line id="XMLID_86_" class="st1" x1="106.2" y1="15.3" x2="108.9" y2="15.3"/>
			<line id="XMLID_85_" class="st1" x1="104.4" y1="16.1" x2="112" y2="16.1"/>
			<line id="XMLID_84_" class="st1" x1="103.5" y1="16.5" x2="113.5" y2="16.5"/>
			<polyline id="XMLID_83_" class="st1" points="101.9,17.3 113.5,17.3 112.5,27.5 136.1,27.5 			"/>
			<polyline id="XMLID_82_" class="st1" points="100.9,17.6 112.9,17.6 111.9,27.8 136.1,27.8 			"/>
			<polyline id="XMLID_81_" class="st1" points="99.4,18.4 111,18.4 110.3,27.2 			"/>
			<polyline id="XMLID_80_" class="st1" points="98.4,18.8 110.2,18.8 109.4,27 			"/>
			<polyline id="XMLID_79_" class="st1" points="96.5,19.7 108.4,19.7 107.9,26.5 			"/>
			<polyline id="XMLID_78_" class="st1" points="95.4,20.1 107.5,20.1 107.1,26.1 			"/>
			<polyline id="XMLID_77_" class="st1" points="93.8,20.8 105.9,20.8 105.3,25.8 			"/>
			<polyline id="XMLID_76_" class="st1" points="92.9,21.2 105,21.2 104.6,25.6 			"/>
			<polyline id="XMLID_75_" class="st1" points="90.9,22.1 103.3,22.1 103,24.9 			"/>
			<polyline id="XMLID_74_" class="st1" points="90,22.4 102.3,22.4 102.2,24.9 			"/>
			<polyline id="XMLID_73_" class="st1" points="88.3,23.1 100.7,23.1 100.6,24.5 			"/>
			<polyline id="XMLID_72_" class="st1" points="87.4,23.5 99.9,23.5 99.8,24.4 			"/>
			<polyline id="XMLID_71_" class="st1" points="99.5,24.4 87.9,24.4 87.1,35 2.7,35 			"/>
			<polyline id="XMLID_70_" class="st1" points="101,24.7 89.3,24.7 88.4,35.6 2.7,35.6 			"/>
			<polyline id="XMLID_69_" class="st1" points="104.2,25.6 92.2,25.6 91.4,36.6 2.4,36.6 			"/>
			<polyline id="XMLID_68_" class="st1" points="105.4,25.9 93.7,25.9 92.8,36.9 2.6,36.9 			"/>
			<polyline id="XMLID_67_" class="st1" points="108.3,26.8 96.4,26.8 95.6,37.8 1.2,37.8 			"/>
			<polyline id="XMLID_66_" class="st1" points="109.8,27.2 98.1,27.2 97.1,38.2 0,38.2 			"/>
			<polyline id="XMLID_65_" class="st1" points="110.5,38.8 111.7,27.9 100.6,27.9 99.7,39.2 -1.5,39.2 			"/>
			<polyline id="XMLID_30_" class="st1" points="-3,39.6 101,39.6 101.8,28.3 111,28.3 110.1,39.3 136.4,39.3 			"/>
			<polyline id="XMLID_29_" class="st1" points="-1,40.4 103.9,40.4 104.9,29.1 109.5,29.1 108.8,40.1 136.9,40.1 			"/>
			<polyline id="XMLID_28_" class="st1" points="136.8,40.6 108.1,40.6 108.9,29.5 106,29.4 104.5,40.6 -3.8,40.6 			"/>
		</g>
	</g>
</g>
</svg>
