<?xml version="1.0" encoding="utf-8"?>
<!-- Generator: Adobe Illustrator 19.0.0, SVG Export Plug-In . SVG Version: 6.00 Build 0)  -->
<svg version="1.1" id="Layer_5" xmlns="http://www.w3.org/2000/svg" xmlns:xlink="http://www.w3.org/1999/xlink" x="0px" y="0px"
	 viewBox="0 0 48 48" style="enable-background:new 0 0 48 48;" xml:space="preserve">
<style type="text/css">
	.st0{fill:#242426;}
	.st1{fill:#8B8282;}
	.st2{fill:#FFFFFF;stroke:#FFFFFF;stroke-miterlimit:10;}
	.st3{fill:#E59425;}
	.st4{fill:#FFFFFF;}
</style>
<path id="XMLID_80_" class="st0" d="M16.3,41h-2.1c-0.5,0-0.9-0.4-0.9-0.9c0-0.5,0.4-0.9,0.9-0.9h0.4v-3c0-0.5,0.4-0.9,0.9-0.9
	c0.5,0,0.9,0.4,0.9,0.9V41z"/>
<path id="XMLID_79_" class="st0" d="M33.8,41h-2.2v-4.7c0-0.5,0.4-0.9,0.9-0.9c0.5,0,0.9,0.4,0.9,0.9v3h0.4c0.5,0,0.9,0.4,0.9,0.9
	C34.7,40.7,34.3,41,33.8,41z"/>
<path id="XMLID_82_" class="st1" d="M5.9,18.3H1.3c0,0,0.3,18.3,22.6,18.3s22.6-18.3,22.6-18.3h-4.7H5.9z"/>
<path id="XMLID_84_" class="st1" d="M23.9,37.6C5.5,37.6,0.4,24.9,0.3,18.3l0-1h5.6v2H2.4C2.8,23,5.7,35.6,23.9,35.6
	C42.2,35.6,45,23,45.4,19.3h-3.6v-2h5.7l0,1C47.4,24.9,42.3,37.6,23.9,37.6z"/>
<circle id="XMLID_78_" class="st2" cx="14.7" cy="18.7" r="8.8"/>
<circle id="XMLID_77_" class="st2" cx="33.1" cy="18.7" r="8.8"/>
<path id="XMLID_76_" class="st3" d="M31.5,21.2c-0.2,0-0.5-0.1-0.6-0.3c-0.3-0.3-0.3-0.9,0-1.2l1.8-1.8c0.3-0.3,0.9-0.3,1.2,0
	c0.3,0.3,0.3,0.9,0,1.2L32.1,21C32,21.1,31.7,21.2,31.5,21.2z"/>
<path id="XMLID_62_" class="st3" d="M16.3,21.2c-0.2,0-0.5-0.1-0.6-0.3l-1.8-1.8c-0.3-0.3-0.3-0.9,0-1.2c0.3-0.3,0.9-0.3,1.2,0
	l1.8,1.8c0.3,0.3,0.3,0.9,0,1.2C16.8,21.1,16.5,21.2,16.3,21.2z"/>
<rect id="XMLID_52_" x="21.8" y="22.7" transform="matrix(0.7071 -0.7071 0.7071 0.7071 -10.5278 24.1831)" class="st4" width="4.2" height="4.2"/>
<path id="XMLID_51_" class="st4" d="M23.9,29.2l-3.6-3.6c-0.3-0.3-0.3-0.9,0-1.2c0.3-0.3,0.9-0.3,1.2,0l2.3,2.3l2.3-2.3
	c0.3-0.3,0.9-0.3,1.2,0c0.3,0.3,0.3,0.9,0,1.2L23.9,29.2z"/>
<path id="XMLID_25_" class="st0" d="M14.7,28.4C9.4,28.4,5,24,5,18.7s4.4-9.7,9.7-9.7s9.7,4.4,9.7,9.7S20.1,28.4,14.7,28.4z
	 M14.7,10.7c-4.4,0-7.9,3.6-7.9,7.9s3.6,7.9,7.9,7.9s7.9-3.6,7.9-7.9S19.1,10.7,14.7,10.7z"/>
<path id="XMLID_21_" class="st0" d="M33.1,28.4c-5.4,0-9.7-4.4-9.7-9.7s4.4-9.7,9.7-9.7s9.7,4.4,9.7,9.7S38.4,28.4,33.1,28.4z
	 M33.1,10.7c-4.4,0-7.9,3.6-7.9,7.9s3.6,7.9,7.9,7.9S41,23,41,18.7S37.5,10.7,33.1,10.7z"/>
</svg>
