<?xml version="1.0" encoding="utf-8"?>
<!-- Generator: Adobe Illustrator 19.0.0, SVG Export Plug-In . SVG Version: 6.00 Build 0)  -->
<svg version="1.1" xmlns="http://www.w3.org/2000/svg" xmlns:xlink="http://www.w3.org/1999/xlink" x="0px" y="0px"
	 viewBox="0 0 48 48" style="enable-background:new 0 0 48 48;" xml:space="preserve">
<style type="text/css">
	.st0{fill:#5694CF;}
	.st1{fill:#7BBEE9;}
	.st2{clip-path:url(#XMLID_2_);fill:#65A8DC;}
	.st3{fill:#45749B;}
	.st4{fill:#98DAF6;}
	.st5{fill:#294554;}
</style>
<g id="Layer_8">
	<path id="XMLID_20_" class="st0" d="M35,11.4c-2.2,2.2-5.8,0.6-5.9-2.4c0-0.1,0-0.2,0-0.3c-0.1-2.4-2.7-4-4.9-3
		c-18,8-17.6,24-16.7,30.2l0.5,2.5c19.2,4.2,29.5-10.3,29.5-10.3c8.6-12.4,5.1-24.3,5.1-24.3L35,11.4L35,11.4z"/>
	<path id="XMLID_707_" class="st1" d="M14.8,26l-7.6,7.6c0,0-0.6-9.7,2.8-15.1C10.1,18.4,12.5,23.9,14.8,26z"/>
	<path id="XMLID_708_" class="st1" d="M28.7,18l-4.2,4.5c0,0,7.3,3.3,16.4-1.8c0,0,2.2-3.7,2.2-9C43.1,11.7,39.6,16.7,28.7,18z"/>
	<path id="XMLID_709_" class="st1" d="M14.2,32.5l-6,6c0,0,10.9,2.8,20.1-3C28.3,35.5,20.3,36.2,14.2,32.5z"/>
</g>
<g id="Layer_11">
	<g id="XMLID_60_">
		<defs>
			<path id="XMLID_705_" d="M35,11.4c-2.2,2.2-5.8,0.6-5.9-2.4c0-0.1,0-0.2,0-0.3c-0.1-2.4-2.7-4-4.9-3c-18,8-17.6,24-16.7,30.2
				l0.5,2.5c19.2,4.2,29.5-10.3,29.5-10.3c8.6-12.4,5.1-24.3,5.1-24.3L35,11.4L35,11.4z"/>
		</defs>
		<clipPath id="XMLID_2_">
			<use xlink:href="#XMLID_705_"  style="overflow:visible;"/>
		</clipPath>
		<path id="XMLID_699_" class="st2" d="M33.9,16.3c-1.7,0.5-3.4,0.7-5,0.7c-0.5,0-0.9,0.4-1,0.9c0,0.5,0.4,0.9,0.9,1
			c1.8,0,3.6-0.2,5.5-0.7c3.6-1,6.7-2.9,9.1-5.4l0-2.9C41.1,12.8,37.8,15.2,33.9,16.3z"/>
		<path id="XMLID_695_" class="st2" d="M30.4,22.6c-1.8,0-3.5-0.3-5-0.8c-0.5-0.2-1,0.1-1.2,0.6c-0.2,0.5,0.1,1,0.6,1.2
			c1.7,0.5,3.5,0.8,5.5,0.9c3.7,0.1,7.2-0.9,10.2-2.6l0.8-2.8C38.4,21.4,34.5,22.7,30.4,22.6z"/>
		<path id="XMLID_704_" class="st2" d="M19.6,33.9c-1.7-0.5-3.3-1.2-4.6-2c-0.4-0.3-1-0.2-1.3,0.3c-0.3,0.4-0.2,1,0.3,1.3
			c1.5,0.9,3.2,1.7,5.1,2.3c3.6,1,7.2,1,10.6,0.2l1.5-2.5C27.6,34.7,23.6,35,19.6,33.9z"/>
		<path id="XMLID_19_" class="st2" d="M12.5,21.2c0.9,1.6,1.9,2.9,3.1,4c0.4,0.4,0.4,1,0,1.3c-0.4,0.4-1,0.4-1.3,0
			c-1.3-1.2-2.4-2.7-3.4-4.4C9,18.9,8.1,15.3,8.2,11.9l2.1-2C9.7,13.6,10.4,17.6,12.5,21.2z"/>
	</g>
</g>
<g id="Layer_12">
	<path id="XMLID_16_" class="st3" d="M14.9,40c-2.3,0-4.7-0.3-7.1-0.8l-0.6-0.1L6.7,36c-0.4-2.9-0.9-8.8,1.3-14.8
		c2.5-7.3,7.9-12.8,15.9-16.3c1.3-0.6,2.9-0.5,4.1,0.3c1.2,0.8,2,2.1,2.1,3.5c0,0.1,0,0.2,0,0.3c0,1.3,0.9,2.1,1.6,2.4
		c0.9,0.4,1.9,0.2,2.7-0.6L43.1,2l0.4,1.5c0,0.1,0.9,3.2,0.7,7.8c-0.2,4.3-1.4,10.7-6,17.3c-0.1,0.2-2.7,3.8-7.8,7
		c-3,1.9-6.2,3.2-9.5,3.9C19,39.8,17,40,14.9,40z M8.9,37.6c4,0.8,8,0.8,11.7,0c3.1-0.7,6.1-1.9,8.9-3.6c4.8-3,7.2-6.4,7.3-6.5
		c4.3-6.2,5.5-12.3,5.6-16.3c0.1-2.4-0.1-4.3-0.3-5.6L35.7,12l-0.1,0.1c-1.2,1.2-3,1.6-4.7,1c-1.7-0.7-2.8-2.2-2.8-4
		c0-0.1,0-0.2,0-0.2c0-0.8-0.5-1.6-1.2-2c-0.7-0.5-1.6-0.5-2.4-0.2C7.3,14.2,7.6,29.5,8.5,35.7L8.9,37.6z"/>
</g>
<g id="Layer_10">
	<path id="XMLID_713_" class="st4" d="M3.7,37.9L33.6,8.1c0,0,1.6-1.2,2.8,0c1.2,1.2,0,2.3,0,2.3L2.7,44c0,0,0-2,0-3.5
		C2.7,39.5,3,38.6,3.7,37.9z"/>
	<path id="XMLID_14_" class="st5" d="M1.8,46.2l0-2.2c0,0,0-2.1,0-3.5c0-1.2,0.5-2.4,1.3-3.3l0.7,0.7l-0.7-0.7L33,7.4l0,0
		c0.8-0.6,2.6-1.3,4,0.1c0.7,0.7,0.8,1.4,0.8,1.8c0,1-0.7,1.7-0.8,1.8L1.8,46.2z M34.2,8.8L4.4,38.6c-0.5,0.5-0.8,1.2-0.8,1.9
		c0,0.4,0,0.9,0,1.3L35.7,9.7c0.5-0.5,0.1-0.9,0-1C35.1,8.2,34.4,8.6,34.2,8.8z"/>
</g>
</svg>
