<?xml version="1.0" encoding="utf-8"?>
<!-- Generator: Adobe Illustrator 23.1.0, SVG Export Plug-In . SVG Version: 6.00 Build 0)  -->
<svg version="1.1" id="Layer_1" xmlns="http://www.w3.org/2000/svg" xmlns:xlink="http://www.w3.org/1999/xlink" x="0px" y="0px"
	 viewBox="0 0 250 250" style="enable-background:new 0 0 250 250;" xml:space="preserve">
<style type="text/css">
	.st0{fill:none;}
	.st1{fill:none;stroke:#D2C98B;stroke-miterlimit:10;}
	.st2{fill:#D2C98B;}
	.st3{fill:#2C2E0F;}
	.st4{opacity:0.1;fill:url(#SVGID_1_);enable-background:new    ;}
</style>
<pattern  y="250" width="42.6" height="42.6" patternUnits="userSpaceOnUse" id="SVGID_2_" viewBox="0 -42.6 42.6 42.6" style="overflow:visible;">
	<g>
		<rect y="-42.6" class="st0" width="42.6" height="42.6"/>
		<g>
			<polygon class="st0" points="0,-42.6 42.6,-42.6 42.6,0 0,0 			"/>
			<g id="XMLID_10_">
				<polygon id="XMLID_18_" class="st0" points="0,-42.6 42.6,-42.6 42.6,0 0,0 				"/>
				<path id="XMLID_17_" class="st1" d="M28.6-21.2c0.2,0.7,1.9,4.6,0.2,7.5c-1.7,2.9-7.1,4.2-7.5,5.1l0,0c-0.5-1-5.8-2.2-7.5-5.1
					s0-6.8,0.2-7.5s-1.4-7.3-1.4-7.3s3,1.1,4.5,1.2s4.2-1.2,4.2-1.2l0,0c0,0,2.7,1.3,4.2,1.2s4.5-1.2,4.5-1.2S28.4-21.9,28.6-21.2z
					 M26.7-19.4c0-0.2-0.1-0.3-0.3-0.3h-4.8v-5.4c0-0.2-0.1-0.3-0.3-0.3c-0.2,0-0.3,0.1-0.3,0.3v5.4h-4.8c-0.2,0-0.3,0.1-0.3,0.3
					c0,0.2,0.1,0.3,0.3,0.3H21v7c0,0.2,0.1,0.3,0.3,0.3c0.2,0,0.3-0.1,0.3-0.3v-7h4.8C26.6-19.1,26.7-19.2,26.7-19.4z"/>
				<g id="XMLID_12_">
					<path id="XMLID_16_" class="st2" d="M0.7-0.2c-0.1,0-0.3,0-0.4-0.1C0.1-0.5,0.1-0.8,0.3-1l9.6-9.8c0.2-0.2,0.5-0.2,0.7,0
						s0.2,0.5,0,0.7L1-0.3C0.9-0.2,0.8-0.2,0.7-0.2z"/>
					<path id="XMLID_15_" class="st2" d="M32.3-31.8c-0.1,0-0.3,0-0.4-0.1c-0.2-0.2-0.2-0.5,0-0.7l9.6-9.8c0.2-0.2,0.5-0.2,0.7,0
						s0.2,0.5,0,0.7L32.7-32C32.6-31.9,32.5-31.8,32.3-31.8z"/>
					<path id="XMLID_14_" class="st2" d="M42-0.2c-0.1,0-0.3,0-0.4-0.1L31.9-10c-0.2-0.2-0.2-0.5,0-0.7s0.5-0.2,0.7,0l9.8,9.6
						c0.2,0.2,0.2,0.5,0,0.7C42.3-0.3,42.2-0.2,42-0.2z"/>
					<path id="XMLID_13_" class="st2" d="M10.4-31.9c-0.1,0-0.3,0-0.4-0.1l-9.8-9.6c-0.2-0.2-0.2-0.5,0-0.7s0.5-0.2,0.7,0l9.8,9.6
						c0.2,0.2,0.2,0.5,0,0.7C10.6-32,10.5-31.9,10.4-31.9z"/>
				</g>
				<polygon id="XMLID_11_" class="st0" points="42.6,0 0,0 0,-42.6 42.6,-42.6 				"/>
			</g>
		</g>
	</g>
</pattern>
<rect class="st3" width="250" height="251"/>
<pattern  id="SVGID_1_" xlink:href="#SVGID_2_" patternTransform="matrix(1 0 0 1 -867.2209 17240.75)">
</pattern>
<rect class="st4" width="250" height="251"/>
</svg>
