<?xml version="1.0" encoding="utf-8"?>
<!-- Generator: Adobe Illustrator 19.0.0, SVG Export Plug-In . SVG Version: 6.00 Build 0)  -->
<svg version="1.1" id="Layer_1" xmlns="http://www.w3.org/2000/svg" xmlns:xlink="http://www.w3.org/1999/xlink" x="0px" y="0px"
	 viewBox="-834 416 250 250" style="enable-background:new -834 416 250 250;" xml:space="preserve">
<style type="text/css">
	.st0{fill:none;}
	.st1{fill:#3A370C;}
	.st2{fill:url(#SVGID_1_);}
</style>
<pattern  x="-834" y="666" width="21.3" height="21.3" patternUnits="userSpaceOnUse" id="New_Pattern" viewBox="0 -21.3 21.3 21.3" style="overflow:visible;">
	<g id="XMLID_52_">
		<polygon id="XMLID_113_" class="st0" points="0,-21.3 21.3,-21.3 21.3,0 0,0 		"/>
		<path id="XMLID_104_" class="st1" d="M10.8-4.1l0.1-0.1c0.1-0.1,0.6-0.3,0.9-0.5c0.9-0.4,2.2-1.1,2.8-2c0.8-1.4,0.2-3.1,0-3.7
			c0-0.1-0.1-0.2-0.1-0.2c0-0.3,0.3-2,0.7-3.5l0.1-0.4l-0.4,0.2c0,0-1.5,0.5-2.2,0.6c-0.6,0-1.6-0.4-2-0.6l-0.1,0l-0.2,0
			c-0.4,0.2-1.4,0.6-2,0.6c-0.7,0-2.2-0.6-2.2-0.6l-0.4-0.2l0.1,0.4c0.4,1.5,0.7,3.3,0.7,3.5c0,0,0,0.1-0.1,0.2
			c-0.2,0.7-0.8,2.4,0,3.7c0.6,1,1.9,1.6,2.8,2c0.4,0.2,0.9,0.4,0.9,0.5L10.5-4h0.2L10.8-4.1z M8.5-13.4c0.7,0,1.8-0.4,2.1-0.6
			c0.3,0.1,1.4,0.6,2.1,0.6c0.5,0,1.4-0.3,1.9-0.5c-0.3,1.1-0.7,3-0.6,3.3c0,0.1,0,0.1,0.1,0.2c0.2,0.6,0.8,2.2,0.1,3.3
			c-0.5,0.8-1.7,1.4-2.6,1.8c-0.5,0.2-0.8,0.4-1,0.5c-0.2-0.1-0.5-0.3-1-0.5C8.8-5.6,7.6-6.1,7.1-7C6.4-8.1,7-9.7,7.2-10.3
			c0-0.1,0.1-0.2,0.1-0.2c0.1-0.3-0.3-2.2-0.6-3.3C7.2-13.7,8-13.5,8.5-13.4z M11.1-6v-3.3h2.1c0.2,0,0.4-0.2,0.4-0.4
			s-0.2-0.4-0.4-0.4h-2.1v-2.5c0-0.2-0.2-0.4-0.4-0.4s-0.4,0.2-0.4,0.4v2.5H8.1c-0.2,0-0.4,0.2-0.4,0.4s0.2,0.4,0.4,0.4h2.2V-6
			c0,0.2,0.2,0.4,0.4,0.4S11.1-5.8,11.1-6z"/>
		<path id="XMLID_102_" class="st1" d="M0.3-0.1c-0.1,0-0.1,0-0.2-0.1c-0.1-0.1-0.1-0.3,0-0.4L5-5.4c0.1-0.1,0.3-0.1,0.4,0
			c0.1,0.1,0.1,0.3,0,0.4L0.5-0.2C0.5-0.1,0.4-0.1,0.3-0.1z"/>
		<path id="XMLID_101_" class="st1" d="M16.2-15.9c-0.1,0-0.1,0-0.2-0.1c-0.1-0.1-0.1-0.3,0-0.4l4.8-4.9c0.1-0.1,0.3-0.1,0.4,0
			c0.1,0.1,0.1,0.3,0,0.4L16.3-16C16.3-15.9,16.2-15.9,16.2-15.9z"/>
		<path id="XMLID_99_" class="st1" d="M21-0.1c-0.1,0-0.1,0-0.2-0.1L16-5c-0.1-0.1-0.1-0.3,0-0.4c0.1-0.1,0.3-0.1,0.4,0l4.9,4.8
			c0.1,0.1,0.1,0.3,0,0.4C21.1-0.1,21.1-0.1,21-0.1z"/>
		<path id="XMLID_98_" class="st1" d="M5.2-16C5.1-16,5-16,5-16l-4.9-4.8c-0.1-0.1-0.1-0.3,0-0.4c0.1-0.1,0.3-0.1,0.4,0l4.9,4.8
			c0.1,0.1,0.1,0.3,0,0.4C5.3-16,5.2-16,5.2-16z"/>
		<polygon id="XMLID_96_" class="st0" points="21.3,0 0,0 0,-21.3 21.3,-21.3 		"/>
	</g>
</pattern>
<pattern  id="SVGID_1_" xlink:href="#New_Pattern" patternTransform="matrix(1 0 0 1 -11.282 -22.3329)">
</pattern>
<rect x="-834" y="415" class="st2" width="250" height="251"/>
</svg>
